<svg xmlns="http://www.w3.org/2000/svg" width="512" height="386" viewBox="0 0 512 386">
  <defs>
    <linearGradient id="a" x1="26.82%" x2="67.58%" y1="48.22%" y2="55.34%">
      <stop offset="0%" stop-color="#FF6533"/>
      <stop offset="15.7%" stop-color="#FF5633"/>
      <stop offset="43.4%" stop-color="#FF4333"/>
      <stop offset="71.4%" stop-color="#FF3733"/>
      <stop offset="100%" stop-color="#F33"/>
    </linearGradient>
    <linearGradient id="b" x1="20.45%" x2="93.49%" y1="38.13%" y2="80.43%">
      <stop offset="0%" stop-color="#BF3338"/>
      <stop offset="100%" stop-color="#F33"/>
    </linearGradient>
    <linearGradient id="c" x1="32.29%" x2="45.56%" y1="39.5%" y2="48.91%">
      <stop offset="0%" stop-color="#FF6533"/>
      <stop offset="15.7%" stop-color="#FF5633"/>
      <stop offset="43.4%" stop-color="#FF4333"/>
      <stop offset="71.4%" stop-color="#FF3733"/>
      <stop offset="100%" stop-color="#F33"/>
    </linearGradient>
    <linearGradient id="d" x1="51.56%" x2="48.52%" y1="78.34%" y2="41.66%">
      <stop offset="0%" stop-color="#FF6533"/>
      <stop offset="15.7%" stop-color="#FF5633"/>
      <stop offset="43.4%" stop-color="#FF4333"/>
      <stop offset="71.4%" stop-color="#FF3733"/>
      <stop offset="100%" stop-color="#F33"/>
    </linearGradient>
    <linearGradient id="e" x1="40.2%" x2="53.98%" y1="47.21%" y2="54.53%">
      <stop offset="0%" stop-color="#FBB040"/>
      <stop offset="100%" stop-color="#FB8840"/>
    </linearGradient>
    <linearGradient id="f" x1="55.22%" x2="40.93%" y1="5.89%" y2="128.02%">
      <stop offset="0%" stop-color="#FFF"/>
      <stop offset="100%" stop-color="#FFF" stop-opacity="0"/>
    </linearGradient>
  </defs>
  <g fill="none" fill-rule="nonzero">
    <path fill="#F0DCBE" d="M256 .19L39.67 100.04 256 199.88l216.32-99.84z"/>
    <path fill="#D2B493" d="M472.32 100.04L256 .19v199.69z"/>
    <path fill="#007ACC" d="M50.07 79.23L45 127.47l48.23 5.07 48.24 5.07 5.07-48.24 5.07-48.23-48.24-5.07L55.14 31l-5.07 48.23zm78.15 4.33c2.38.87 4.13 2.16 5.66 4.11.8 1.04 1.93 2.91 1.99 3.34.02.12-4.47 2.5-7.18 3.81-.1.05-.43-.38-.77-1.04-1.06-1.94-2.27-2.86-4.25-3.2-2.9-.5-4.95.82-5.2 3.38-.08.75-.02 1.2.22 1.85.5 1.4 1.61 2.32 5.2 4.34 6.59 3.7 9.34 5.97 10.88 8.95 1.73 3.32 1.67 8.33-.11 11.88-1.96 3.85-6.04 6.17-11.48 6.52-1.68.11-5.6-.34-7.34-.85-3.8-1.1-7.28-3.4-9.28-6.15-.79-1.07-2.25-3.81-2.12-3.98.05-.06.48-.26.95-.48l3.8-1.69 2.94-1.31.49.91a13.02 13.02 0 0 0 3.3 3.9c2.9 1.94 7.15 2.16 9.43.5a3.57 3.57 0 0 0 1.56-2.75 3.55 3.55 0 0 0-.46-2.53c-.64-1.15-2.08-2.22-6.23-4.56-4.75-2.66-6.75-4.22-8.5-6.54a12.8 12.8 0 0 1-2.13-5.1c-.23-1.4.04-4.83.47-6.17 1.54-4.7 5.52-7.68 10.86-8.12 1.73-.14 5.67.4 7.3.98zm-23.08 1.65l-.38 3.95-6.28-.66-6.28-.66-1.87 17.84-1.88 17.84-4.44-.47-4.44-.46 1.88-17.84 1.87-17.84-6.28-.66-6.27-.66.4-3.87c.23-2.15.46-3.93.53-3.97.05-.06 7.7.71 16.96 1.7l16.85 1.82-.37 3.94z"/>
    <path fill="#000" d="M304.26 125.1l.33-.02-.05-.54-.33.03.05.54zm-8.62 3.61l-.18.02.03.37c.11 0 .3.04.52.12l.33-.04c-.01-.16-.25-.32-.7-.47zm-10.86-14.06c.3-.03 1.5-.98 3.6-2.88.38-.03.96.62 1.72 1.95l3.3 3.81c1.08.86 2.83 1.36 5.25 1.5l.56-.04c1.68-.14 3.03-1.37 4.06-3.68.92-1.37 1.43-3.84 1.52-7.4-.25-2.94-1.3-6.78-3.14-11.52a47.35 47.35 0 0 1-2.8-4.45l-.27.02c0 .1.06.27.19.45.02.2-.07.3-.25.32l.15.28v.14l-.12.01c-.14.01-.95-1.01-2.4-3.1l-.29.17v-.14l.12-.34c-.1.01-.17-.14-.2-.42h-.12l-.4.34c-.02-.1.03-.26.1-.48a2.3 2.3 0 0 0-.77-1.41l.84.19c2.99.7 5.63 1.17 7.92 1.43l.15-.04c.3-.48.74-.95 1.28-1.38h.6l.13-.03-.04-.14c-2.24-1.5-6.08-4.4-11.5-8.7-3.86-3.28-6-4.97-6.43-5.07-1.38-1.34-2.2-1.98-2.49-1.9-.22-.36-.45-.5-.7-.45-.02-.1.01-.17.11-.2a3.89 3.89 0 0 1-1.77-2.54l-.27-1.19c-.03-.16-.15-.24-.34-.23l-.15.04.1.44-.12.04-.39-1-.4-1.79-.06-.93c-.14-.14.01.74-.07.4l-.27-1.17c-.16-.7-.1-1.1.18-1.16l-.03-.14a.66.66 0 0 1-.3.01l.29-.06-.22-.94c.43-.07 2-1.33 4.7-3.79.52-.04 1.28.82 2.27 2.6l4.36 4.99c1.43 1.12 3.72 1.78 6.88 2l.74-.07c2.22-.2 4.01-1.82 5.4-4.86 1.2-1.8 1.86-5.05 1.96-9.72-.33-3.88-1.7-8.95-4.1-15.18a58.05 58.05 0 0 1-3.67-5.85l-.39.03c.01.15.1.34.23.58.02.25-.1.4-.32.41l.22.4V33h-.17c-.19.02-1.24-1.34-3.17-4.09l-.34.22-.01-.2.15-.42c-.12.01-.2-.18-.23-.58l-.2.02-.5.46c-.02-.15.03-.35.12-.62-.08-.89-.71-1.75-1.92-2.61l-.34.22a5.47 5.47 0 0 1 1.04 1.3l-.56.04c-.01-.12-.1-.32-.23-.58l-.7.47c.96.9 1.8 1.9 2.48 2.98-.13.53-.3.82-.48.83l.03.41a31.91 31.91 0 0 1 4.7 8.74l-.39.04c-.8-.54-1.2-.9-1.22-1.1-.28.02-.51.11-.72.29-.49.04-3.78-1.27-9.86-3.93-14.13-6.04-24.6-11.1-31.35-15.22-.14.01-.32.1-.55.24.24 1.01.49 1.65.73 1.93l.02.21-.39.04.04.37.21.4c-.11 0-.17.13-.14.4l-.39.03c-.37.03-.94-.19-1.72-.64-.47-.41-1.44-.86-2.93-1.33l-.18.02.03.37a23.8 23.8 0 0 0 5.37 3.74c1.4 4.8 2.77 8.45 4.12 10.98.21 2.55.88 4.48 1.98 5.8l.2-.01-.28-.96-.02-.22.2-.02c.29 1.87.7 3.16 1.26 3.88 2.8 3.64 4.77 6.39 5.94 8.25 2.79 3.82 5.51 6.3 8.15 7.44l.15.63c.02.54.03.84.06.92.1-.03.16.02.18.12.09.86-.06.45.07 1l.33 1.43c-.03-.09-.07-.12-.16-.1l.13.22c0-.05.01-.08.03-.12l.05.24-.07-.11c-.02.16 0 .33.04.52l-.42.1-10.34-6.53-1.8-1.45-2.36-.7.03.13.3.7-.92-.22-.27.07-.24.2c-.02-.1-.08-.13-.18-.11l-.15.03.07.3c.37.43.71.61 1.02.55-.08.46-.11.77-.07.93l-.15.04c-.06-.29-.3-.44-.68-.46l-.14.03.03.16c2.58 2.38 11.39 8.2 17.37 12.86.65-.15 1.54 2.28 2.7 7.3l.03.17c-.78.18-2.67-.21-5.68-1.17-1.82-.61-2.81-.91-2.97-.87-2.42-.8-3.72-1.17-3.93-1.13l-5.8-1.78a52.7 52.7 0 0 0-9.38-2.64c.02.1.01.26-.04.49l.21.25c-.1.02-.13.09-.11.2l.42-.11.02.78c.06.22.34.42.86.58.79-.04 1.2.12 1.3.48 1.86.48 2.79.77 2.82.88 1.85.44 2.9.77 3.17.99 2.4.67 3.64 1.16 3.72 1.48l-.3.07-1.26-.49a61.42 61.42 0 0 1-8.95-2.6l-1.09.25.04.16c4.54 2.12 13.52 5.18 26.95 9.16 1.18.12 2.1.69 2.75 1.7l.24-.23.12-.03c.1.46.28.77.53.96.1-.03.25-.42.46-1.2l8.46 1.98c.39.44.6.69.6.77l-.44.03c-.01-.1-.07-.26-.2-.44l-.53.37a12.2 12.2 0 0 1 1.91 2.24c-.11.41-.25.62-.39.64l.03.3a24.23 24.23 0 0 1 3.54 6.65l-.29.02c-.6-.4-.9-.67-.92-.82-.2.02-.38.08-.54.18-.37.04-2.87-.94-7.5-2.95-10.72-4.59-18.65-8.43-23.8-11.56-.1.01-.24.08-.42.2.18.77.37 1.26.56 1.45v.14l-.28.02.03.32.14.29c-.08.01-.11.11-.1.3l-.3.03c-.28.02-.7-.14-1.3-.5a6.45 6.45 0 0 0-2.21-1.03l-.15.01.02.3a17.92 17.92 0 0 0 4.09 2.84 46.16 46.16 0 0 0 3.12 8.33c.17 1.95.67 3.42 1.5 4.43l.16-.02-.22-.74-.01-.16h.15c.2 1.4.52 2.4.94 2.94a92.12 92.12 0 0 1 4.5 6.26c3.19 4.4 6.25 6.46 9.19 6.2zm-.2-.76l-1.14.1c-.28-.13-.43-.28-.44-.42l1.95-.17c-.11.32-.23.48-.36.5zm9.24-86.4v-.19l.34-.03.07.79h-.18a1.52 1.52 0 0 0-.23-.56zm-38.24-3.84c.2-.45.28-.87.25-1.22l.55-.04c.22-.03.37.1.42.37.03.25-.15.4-.52.42.8.67 1.22 1.03 1.23 1.1l-.17.42c-1.14-.14-1.72-.49-1.76-1.05zm42.73 41.09c-.02-.2.58-.58 1.77-1.14l.36-.04c.03.37-.56.75-1.77 1.14l-.36.04zm4.24-.55l-.38-.16 2.32-5.58c-.13 3.72-.78 5.64-1.94 5.74zm-20.12-23.56l-.07-.79.36-.03.06.79-.35.03zm12.08-.64l.02.2-.56.04c-.01-.18-.28-.42-.8-.72l.38-.03c.42.35.74.53.96.51zm-3.88-1.65l-.73.06-.01-.19.73-.07.01.2zm-1.38-.87l.03.38c-.6-.04-.94-.21-.96-.52l-.01-.2c.4.25.72.36.94.34zm-1.93-.65l.02.22h-.18l-.59-.35-.03-.37.18-.01c.03.37.23.54.6.5zm-1.73-.64l-.93-.11-.02-.2.92-.08.03.39zm-18.1-6.4c-1.27-.25-1.92-.53-1.94-.81l.18-.01c.63-.07 1.22.2 1.76.82zm-2.53-1.18l-.18.01c-.25.03-.4-.09-.4-.34h.17c.22-.03.35.08.41.33zm-5.25-.34l.06.6-.2.02c-.02-.15-.1-.34-.24-.58l-.03-.38c.2-.02.34.1.4.34zm5.18 16.89c-1.63-3.33-2.74-5.3-3.32-5.88-1.25-3.6-2.02-5.4-2.33-5.36a58.96 58.96 0 0 0-2.76-6.33c-.03-.24.06-.59.27-1.04.64-.06 1.17.24 1.59.87.04.55-.04 1.1-.25 1.6.3.6.64 1.64 1 3.1l.4-.03-.11-1.18c.2.15.74 1.29 1.6 3.43l.06.6h-.19c-.09-1-.38-1.57-.91-1.7-.24.03-.34.17-.32.42.47.76.76 1.14.84 1.13.27 1.45 2.36 5.45 6.25 12.01l-.35.04c-.17 0-.65-.55-1.47-1.68zm-3.29-10.07a3.9 3.9 0 0 0 1.14 2.47c.02.27-.08.42-.32.43-.05-.47-.43-1.37-1.18-2.68l-.01-.2.37-.02zM274 51.32l-3.96-5.03c-2.44-3.74-3.66-5.75-3.68-6.04-3.26-5.95-4.95-9.66-5.07-11.1l-.03-.22c.67.19 6.06 2.83 16.2 7.97.2 2.26 1.24 5.82 3.15 10.67l.1 1.18c.21 2.46-.26 4.3-1.4 5.5l-.74.07c-2.6-.91-4.12-1.92-4.57-3zm5.5-9.83l.07.8-.18.02-.07-.81.19-.01zm1.92 11.37l.06.6c-.26.54-.49.83-.7.85l-.17.01c-.05-.52.22-1.01.81-1.46zm9.11 1.61c-.62-.52-1.69-1.96-3.19-4.31-.06-.78-1.18-3.67-3.35-8.66.11-.25.16-.52.13-.8l.35-.04c.72-.05 1.62.27 2.7.97 2.05.4 3.21.81 3.5 1.28l9.31 4.17c.58-.05 1.02.84 1.33 2.67l.06.59-.54.05c.28 1.79.43 2.9.47 3.34.28 3.3-.39 5.03-1.99 5.17l.04.37.94-.08.03.41c-.53.97-1.18 1.5-1.94 1.57-.52.04-1.17-.24-1.94-.85-.02-.25.16-.4.52-.42l-.03-.41-1.13-.1c-2.5-1.67-3.78-2.89-3.85-3.64-.94-.69-1.4-1.1-1.42-1.28zm-6.52 2.56c.23-.35.33-.62.32-.83l.55-.04.04.38-.5.83c-.25.03-.39-.08-.41-.34zm-3.12 2.64c-.15.37-.3.58-.45.63l-.05-.18h-.01a.4.4 0 0 0-.02-.1l-.22-.28.75-.07zm-1.57.25l.15-.03.11.48-.14.03-.12-.48zm-1.28 1.16c.08.49.12.73.32 1.64l-.15.03-.4-1.73.23.06zm-.71 1.69c-.07-.74.02-.58-.24-1.74l.15-.03.46 1.45.16.7-.27.06c-.07-.3-.07-.08-.26-.44zm.36 1.54c-.05-.18.03-.31.23-.4l.1.45c.04.2-.04.32-.23.37l-.1-.42zm4.47 4.17l.15-.03.17.72-.27.06-.05-.75zm-27.2 4.46c.2.05.35.06.45.04l.03.16c.05.2-.02.3-.2.35l-.15.03-.13-.58zm26.03 3.13l.06-.32c-.2-.51-.35-.95-.43-1.3l-.07-.3c-.05-.17.02-.3.2-.37l.48 2.08.32.69-.26.23a1.53 1.53 0 0 0-.3-.71zm.51 1.6l.15-.03c.02.1.1.24.25.4l.34 1.47-.15.04c-.2-.79-.38-1.42-.59-1.87zm2.99.24c-.03-.1-.12-.24-.25-.41.1-.03.1-.23 0-.62.3-.07.69 1.03 1.21 3.3l.07.32-.27.06c-.47-1.6-.73-2.48-.76-2.65zm4.28 3.99c-1.8-.16-2.82-.8-3.08-1.93l.15-.03-.39-1-.1-.45c-.06-.23-.05-.44 0-.62l.4-.09c.15-.03 2.15 1.42 5.98 4.36l-.05.34c-.52.13-1.49-.07-2.9-.58zm6.02 7.06l-.01-.13.28-.03.06.6h-.15c-.02-.1-.08-.24-.18-.44zm-29.06-2.9c.16-.35.23-.66.2-.92l.44-.03c.15-.02.25.08.3.27.03.2-.1.3-.4.33.62.5.94.77.94.82l-.13.31c-.86-.11-1.31-.38-1.35-.79zm32.45 31.19c-.01-.15.44-.44 1.36-.88l.28-.02c.03.28-.42.58-1.32.87l-.32.03zm3.24-.41l-.3-.14 1.77-4.22c-.1 2.82-.58 4.28-1.47 4.36zm-15.28-17.9l-.05-.6.28-.02.04.6-.27.01zm9.18-.5l.01.16-.43.04c-.01-.15-.22-.33-.61-.55l.28-.02c.33.26.58.39.75.37zm-2.95-1.24l-.56.05v-.16l.55-.05.01.16zm-1.06-.67l.03.3c-.48-.04-.73-.17-.75-.38l-.01-.16c.32.17.56.25.73.24zm-1.45-.48l.01.13-.14.02-.46-.27-.02-.3h.15c.02.3.18.44.46.42zm-1.31-.48l-.73-.1-.01-.14.71-.06.03.3zm-13.76-4.87c-.96-.2-1.45-.4-1.47-.62l.13-.01c.47-.04.93.17 1.34.63zm-1.92-.9h-.13c-.2.03-.31-.06-.33-.27h.15c.15-.02.25.07.3.27zm-4-.26l.04.46-.15.01c-.01-.1-.07-.26-.17-.44l-.02-.3c.16-.01.26.08.3.27zm3.94 12.82c-1.23-2.51-2.07-4-2.5-4.47-.96-2.74-1.55-4.1-1.79-4.08a43.4 43.4 0 0 0-2.1-4.78c0-.18.06-.44.22-.79.49-.04.88.19 1.18.67.03.43-.02.84-.18 1.22.23.45.47 1.24.76 2.36l.28-.02-.07-.94c.16.11.57 1 1.23 2.62l.03.46-.12.01c-.07-.77-.3-1.2-.7-1.3-.19.01-.28.13-.25.32.37.57.59.84.65.84.2 1.1 1.78 4.14 4.76 9.12l-.29.02c-.12.02-.48-.4-1.1-1.26zm-2.5-7.65c.07.74.36 1.37.86 1.9.02.2-.07.3-.25.32a7.28 7.28 0 0 0-.87-2.03v-.16l.27-.03zm9.43 12.35l-3.04-3.8c-1.85-2.84-2.78-4.38-2.8-4.62-2.47-4.52-3.75-7.33-3.85-8.43v-.16c.5.13 4.6 2.15 12.3 6.06.14 1.7.94 4.39 2.4 8.08l.08.93c.15 1.86-.2 3.25-1.08 4.16l-.56.05c-1.95-.7-3.1-1.45-3.45-2.27zm4.18-7.46l.05.59-.14.01-.06-.6h.15zm1.46 8.63l.04.46c-.2.42-.39.64-.54.65l-.12.01c-.04-.4.17-.77.62-1.12zm6.91 1.2c-.48-.4-1.3-1.48-2.43-3.25-.05-.6-.9-2.78-2.53-6.57.07-.18.1-.39.08-.6l.29-.03c.54-.05 1.22.2 2.05.72 1.56.3 2.44.63 2.64.97l7.08 3.18c.42-.03.76.64 1.02 2.01l.04.46-.43.03c.21 1.35.34 2.2.37 2.53.22 2.51-.28 3.83-1.5 3.93l.01.3.68-.06.03.3c-.4.73-.88 1.11-1.44 1.16-.41.03-.91-.17-1.49-.6-.02-.2.11-.31.4-.34l-.01-.3-.85-.08c-1.92-1.27-2.9-2.2-2.95-2.78-.7-.51-1.05-.83-1.06-.98zm-4.72 1.34l.43-.04.02.3-.38.64c-.18.01-.28-.08-.3-.28.16-.27.24-.47.23-.62zm-27.56-53.12l-.06-.3-.22-.24c-.18.04-.25.16-.2.35.04.2.16.27.34.23l.14-.04zm2.24-1.13l-.15.04c.05.2.16.27.34.23l.15-.04c-.05-.18-.16-.26-.34-.23zm19 8.04l.08.34.3-.07-.08-.34-.3.07zm-8.64 103.53c-.77-3.47-.64-3.9-.7-4.63l-.28.02.02.32.02.17.03-.04.15.37c.37 3.44.24 3.84.62 3.8h.14zm-2.46-18.68l-.29.03v.04l.29-.02v-.05zm7.47-2.14l.1-.31a5.1 5.1 0 0 0-1.18-.37l-.12.02c.01.24.42.45 1.2.66zm-4.96 21.53l-.28.02-.09.5.28-.02.1-.5zm-2.87-23.6l.1-.79-.3-.13h-.15l.39 4.63.28-.02-.32-3.7zm10.07-2.1l.14-.02v-.16l-.19-.28-.27.15c.02.22.12.32.32.3zm-5.1 27.89l.01.22c.02.12.12.18.3.17l.27-.13a3.71 3.71 0 0 0-.45-1.79l.15-.01-.1-.95c.29-.02.44-.1.42-.23l-.04-.49c-.05-.57-.02-.84-.24-1.13.1 0 .15-.04.15-.1l-.05-.55-.18-.32c.1 0 .15-.04.15-.1l-.17-.2h.15l.05-.77v-.18l-.3.02-.1.39.03.36a.67.67 0 0 0-.1.43l.17.32h-.13c-.44-1.78-.36-1.77-.57-3 .1-.14.14-.24.13-.31l-.02-.03c0-.13.1-.21.25-.22l.08.63c0 .05-.05.08-.12.44.25.51.35.53.38.8l.28-.01c-.34-1.76-.11-1.05-.3-3.26l-.02-.1.29-.02c.34 2.83.14 1.88.42 2.85-.1.01-.15.05-.15.1.11.12.17.24.2.4v.19c.08.99-.11 1.32.43 3.28l-.12.01.16.32.02.3c.28-.02.33.41.34.56l.3-.02c-.69-3.45-.5-4.35-.76-5.31l.12-.01c-.16-.9-.09-.94-.1-1.17a.6.6 0 0 0-.18-.28c.1-.01.14-.05.14-.12v-.05l-.48-2.92c.08-.01.12-.05.11-.12-.32-1.51-.37-1.1-.56-3.13a.96.96 0 0 0-.15-.38c.07-.01.12-.06.1-.16l-.1-1.24-.2-.84c.08 0 .13-.05.12-.16-.13-.47-.2-.88-.23-1.2v-.03c-.02-.2.06.1.12-.06l-.14-.25c-.04-.36.02-.17 0-1.42-.26-2.2-.3-1.97-.31-2.2l.06-.83c-.08.01-.14-.03-.14-.12.13-.94.27-1.42.44-1.43.89.13 1.34.34 1.36.65l.02.16-.3-.14.01.16c.16.3.3.44.44.43l.31-.03-.02-.3.28-.02c.22-.02.41.01.57.1l1.08.67-.29.02.03.32.28-.02.26-.19c.2.24.32.43.33.58l.15-.02-.04-.43.43-.03c1.8.86 2.84 1.27 3.13 1.25l-.12.3c.01.2.12.3.33.28l-.02-.3h.12c.22-.03.42.02.6.1.49.48.98.7 1.49.65.01.09-.04.13-.14.15.23.4.83.7 1.83.93 1.27.7 3.81 1.71 7.61 3.03 6.72 2.5 7.43 2.4 9.02 2.76l-.02-.3c-.2.02-.4-.02-.58-.11.08-.2.12-.37.11-.48l.13-.01c.58-.05 1.27.19 2.08.74l.02.13-.98.25.02.3c.07-.01.46.07 1.17.23.15-.01.24-.13.25-.35l-.18-.29c.2-.02.74-.01 1.59.02l-.01-.14c.25-.26.45-.38.62-.4l-.16-1.62c.12-.02.29-.07.5-.19.15 0 .3.36.44 1.11l-.12.33.18.3c-.1.02-.15.08-.14.2l.19.3c-.1.01-.15.07-.14.18l.01.15.33-.02c-.02-.23-.02-.84.01-1.8l-.2-.3.18-.01c-.63-7.66-.98-12-1.08-13.04-.01-.14 0-.68.02-1.63-.12.02-.19-.1-.21-.33l.15-.33-.29-1.12c-.02-.26-.01-.7.06-1.32a1.14 1.14 0 0 1-.24-.63l.2 3.28a1.5 1.5 0 0 1-.25-.8 1.1 1.1 0 0 1 .12-.65c-.12-.25-.3-1.06-.57-2.42l.13-.33-.82-5.34c.1-.2.14-.45.11-.72a8.93 8.93 0 0 0-.3-1.43l-1.07-2.57-.32.19c.01.13.08.3.2.52l-.07.92-.85-.12c-.38-.84-.93-1.33-1.64-1.47-.55-1.26-.95-1.9-1.19-1.9l-.15.02.01.2.19.34-.48.4-.66.05c-.2.02-4.66-2.1-13.37-6.38-8.4-3.7-13-5.63-13.82-5.82-.35-1.26-.86-2-1.54-2.2-.22.01-.37.39-.42 1.12l-.33.03-.55-.33-.66.06c-.34.04-.6.96-.78 2.77.12 0 .18.05.2.17-.41.04-1.2-.08-2.39-.34l.01.2c1.02.75 1.73 1.1 2.11 1.07l.01.16c.02.18-.19.38-.63.6-.1-.22-1.9-1.02-5.42-2.4l-.32.2.01.2c4.22 1.67 6.56 2.72 7 3.16.2 2.2.58 6 1.16 11.42l.2.34c-.11.01-.17.08-.16.2l.04.36.2.34c-.11.01-.17.08-.16.2l.35 4.1c.1 1.09.42 1.6.98 1.55.15 0 .32.63.5 1.92.01.13-.02.3-.1.56.1-.01.2.64.31 1.94.68.03 1.05.25 1.08.64l.33-.04a5.7 5.7 0 0 0-.28-1.25c.04-.86.11-1.4.19-1.63a1.5 1.5 0 0 1-.2-.53l-.1-2.85-.18-.34c.1-.01.15-.08.14-.2l-.01-.17-.18-.36c.1-.01.18-.31.26-.9l-.22-.37-.05-.7.18-.02c.4 3.68.9 5.5 1.48 5.45.03.23-.09.36-.33.38l.28 1.08.33-.04-.24-8.8c-.12.02-.18-.04-.2-.17l.1-1.07a1.3 1.3 0 0 0-.24-.68l.14-.4c-.09-1.11-.22-1.93-.4-2.48.06-.75.05-1.59-.03-2.51l-.17-1.97.1-.92c.58-.04 3.43 1.09 8.54 3.42 1.72.67 2.8 1.28 3.2 1.88.02.12-.03.3-.13.56l.48 1.4-.12.72c.1 1.2.45 2.61 1.04 4.22.03.4 0 .7-.08.91l.25 1.08.27 3.2c.11 1.35.4 2.82.9 4.42l.32-.04c-.05-.59.05-.9.29-.92.44-.03.62-.47.55-1.3l.33-.04.25.88.2 2.3.32-.03c0-.09 0-.56.04-1.42l.35-.04.08.9c.02.23.14.34.36.31-.03-1.2.02-1.8.18-1.81-.4-8.35-.48-12.54-.22-12.56-.01-.13-.1-.3-.23-.53l.34-.22c4.67 2.22 7.03 3.52 7.07 3.9-.18 0-.48-.08-.88-.29l-.14.01.03.36c2.09.87 3.17 1.62 3.21 2.23.23 2.63.4-.36 1.27 5.25-.1.23-.15.39-.13.5.44 2.2.9 5.27 1.38 9.21l.33-.02-.2-2.1.34-.02c.02.25.1.45.23.62l-.18.01c.01.12.1.28.23.48.03.37 0 .64-.1.84.19.73.3 1.32.35 1.75l.12 1.32c.2.32.39.46.56.45h.15c-.04-.34-.01-.72.06-1.16.19-.01.31.08.37.3l.22 2.44.29 1.11c-.13.02-.17.07-.17.16 0 .12.09.28.23.48-.02.06-.02.13-.03.19-.3-.15-.75-.32-1.32-.5l-.03-.31c.22-.03.41-.08.58-.19l-.01-.16c-8.21-2.96-12.04-4.29-18.34-7.02-1.62-.5-2.51-.93-2.7-1.3-.19.02-.28.13-.25.33-.8.06-1.58-.12-2.35-.56-3.63-1.27-5.62-2.11-5.98-2.55l-1.71.29c-.19 0-.29-.08-.31-.28l-.02-.3c.47-.04.7-.21.67-.52l-.02-.16c-.6-.39-1.29-.68-2.1-.88l.03.3c.26.4.57.58.92.55l.05.6-.12.33c-.43-.27-.77-.4-1.03-.37l-.28.16-.9-.4-.15.02c.03.34-.08.72-.32 1.12a2 2 0 0 0 .36.9c.04.34.05 1.62.05 3.82l.37 1.1c.02 1.36-.02 1.57.08 2.74l.05.48.17.25h-.15c.1 1.23.02 1.3-.09 2.27h-.15l-.05-.67-.29.03c.03.2.08.39.2.53.02.18-.07.28-.28.29-.02-.27-.09-.58-.2-.92l.1-.3c-.12-.47-.16-.37-.18-.69l.1-.46c-.09 0-.14-.04-.14-.12-.19.01-.28.12-.27.29l.05.48.22 2.5.2.94c-.08.01-.13.05-.11.13l.17.45.06.86c.06.66.1.65.33 2.09.1-.01.13.02.14.09l-.13.01c.4 2.34.42 2.49.55 2.86l-.07.04c.14.58.1.25.22.4-.1.02-.15.06-.15.11l.03.41.3-.02.02-.83.02-.01c0-.04 0-.06-.02-.1v-.11h-.02c-.12-.56-.04-.57-.07-.94l-.11-2.08.14-.01.16 1.16.04.42.17.24-.15.01c.14 1.65-.27 2.23 1.34 9.83.03.4.37.37 1.08.64a.71.71 0 0 1 .09-.4c-.24-.63-.13-.96-.32-2.17-.01-.1.08-.18.26-.22l.12-.01-.03 1.16c.02.22.06.64.4 1.27-.1 0-.15-.23-.14-.1zm-.9-56.18l-.05-.54c.22-.02 1.03.26 2.43.86l.03.35c-.33.01-1.13-.2-2.41-.67zm2.58.65l.15-.02c.18 0 .3.1.36.36l-.15.01c-.21.01-.34-.1-.36-.35zm-5.48 7.13h-.15l-.07-.88.14-.01.08.89zm.1-1.07c-.19 0-.4-.27-.6-.86l.08-1.1-.03-.35.33-.03.21 2.34zm33 7.2l-.05-.53.18-.01c.18-.01.3.09.36.32l.02.2-.15.36c-.22 0-.34-.1-.36-.33zm1.58 8.16l.01.18-.32.02-.05-.5c.18 0 .3.09.36.3zm-.71-2.05l.09-.81.15-.01c.09 1.06.2 1.41.38 2.06-.12.02-.17.13-.14.34l-.33.02-.04-.32a1.1 1.1 0 0 1 .12-.65c-.13-.2-.2-.4-.23-.63zm-2.94 1.02l.15-.02.12 1.32h-.14l-.13-1.3zm1.13 1.4l.19-.01.05.64h-.18l-.06-.63zm2.23.15l-.01-.17.35.15.13 1.46h-.18a8.86 8.86 0 0 0-.3-1.44zm-3.13.74l.33-.02.05.64c.03.21-.08.33-.3.34l-.08-.96zm5.24 3.87l-.23-.82-.01-.15c-.03-.39-.02-.9.03-1.49.07 1.07.15 2.08.2 2.46zm-3.63-.88l-.15.01-.1-1.13.15-.01.1 1.13zm-.88 1.85c.14-.01.23-.23.28-.68l-.32-1.13-.03-.86c.13-.2.22-.3.29-.31l-.06 1 .37 2.26-.05 1.15-.18.02a6.5 6.5 0 0 0-.3-1.45zm2.99 11.62l-.01.27c.38.4.69.84.9 1.35-1.79-.4-3.12-1.05-3.98-1.92l.39-.64c1.35.53 2.24.85 2.7.94zm-3.35-1.96l.01.16c-.4-.22-.62-.4-.63-.57l.43-.03c0 .1.07.25.2.44zm-3-1.26c1.22.3 1.91.6 2.1.87l-.15.02c-1.14-.16-1.74-.42-1.78-.75l-.72.06c-.39-.27-.68-.4-.9-.39l-.02-.16.99-.09c.02.18.18.33.48.44zm-1.64-.5c-.17.02-.57-.1-1.18-.33l-.01-.16.43-.03c.5.22.75.4.76.52zm-26.57-9.2l.13-.01.02.3-.43.03c-.01-.16.08-.28.28-.32zm-.34 13.15c.1 0 .15-.05.14-.16l-.07-.74.15-.01v.07l.14 1.76h-.14c-.03-.5-.1-.81-.22-.92zm.36-.88c-.03.07-.06.04-.09 0 .02-.03.05-.08.1 0zm2.05.1l-.08-.99h.15l.07.88.2.78c-.1.01-.13.06-.12.16.16.92.2.83.24 1.28.01.14-.08.24-.26.25l-.2-2.36zm.3 3.43c.05-.55.1-.58.06-.97l.12-.01.08.88h-.12c-.01-.08-.03.25-.15.1zm.15.07l.13-.01.04.48h-.12l-.05-.47zm.1 1.06l.12-.01c0 .08.06.2.18.34.02.24-.14.37-.32.39l.01-.72zm.16 1.36l.15-.01.04.58h-.14l-.05-.57zm.07.8c.17 0 .27.06.3.21l-.25.2c.07-.02.12.02.13.09l-.27.15.09-.64zm-3.7-8.6l.28-.03v-.1l-.29.03.01.1zm5.16 20.04c.06.1.12.14.15-.08-.11-.1-.15.11-.16-.11h-.1l.1.13-.11-.12h-.01l-.3-.24.16.48v.05l.28-.02v-.09zm-.64.83l-.01-.09-.29.02.06.68c.18-.01.24-.46.24-.6zm.5-1.04v.02h.02l-.02-.02z"/>
    <path fill="#F9DC3E" d="M296.98 128.05h-.19l.04.38c.11 0 .3.04.52.12l.33-.04c-.01-.16-.25-.32-.7-.46zm8.62-3.61l.33-.03-.05-.54-.33.03.05.54zm-19.48-10.46c.3-.03 1.5-.98 3.6-2.88.38-.03.96.62 1.72 1.95l3.3 3.81c1.08.86 2.83 1.36 5.25 1.51l.56-.05c1.68-.14 3.03-1.37 4.06-3.68.92-1.37 1.43-3.84 1.52-7.4-.25-2.94-1.3-6.78-3.14-11.52a47.35 47.35 0 0 1-2.8-4.45l-.28.02c.02.1.07.27.2.45.02.2-.07.3-.25.32l.15.28v.14l-.12.01c-.15.01-.95-1.01-2.4-3.09l-.29.16v-.14l.12-.34c-.1.01-.17-.14-.2-.42H297l-.4.34c-.02-.1.02-.26.1-.48a2.3 2.3 0 0 0-.77-1.41l.84.19c2.99.7 5.63 1.18 7.92 1.43l.15-.04c.3-.48.74-.94 1.28-1.38h.6l.13-.03-.04-.14c-2.24-1.5-6.08-4.4-11.5-8.7-3.86-3.28-6-4.97-6.43-5.07-1.38-1.34-2.2-1.98-2.49-1.9-.23-.36-.45-.5-.7-.45-.02-.1.01-.17.11-.2a3.89 3.89 0 0 1-1.77-2.54l-.27-1.19c-.03-.16-.15-.24-.34-.23l-.15.04.1.44-.12.04-.39-1-.4-1.79-.06-.93c-.14-.14.01.74-.07.4l-.27-1.17c-.16-.7-.1-1.1.18-1.16l-.03-.14a.66.66 0 0 1-.3.01l.28-.06-.21-.94c.43-.07 2-1.33 4.7-3.79.52-.04 1.28.82 2.26 2.6l4.37 4.99c1.43 1.12 3.72 1.78 6.88 2l.73-.07c2.23-.2 4.02-1.82 5.4-4.86 1.22-1.8 1.86-5.05 1.97-9.72-.33-3.88-1.7-8.95-4.1-15.18a58.05 58.05 0 0 1-3.67-5.85l-.39.03c.01.15.1.34.23.58.02.26-.1.4-.32.41l.21.4.02.19h-.19c-.18.02-1.23-1.34-3.16-4.09l-.34.22-.01-.2.15-.42c-.12.01-.2-.18-.23-.58l-.2.02-.5.46c-.02-.15.03-.35.12-.62-.08-.89-.71-1.75-1.92-2.6l-.34.2a5.47 5.47 0 0 1 1.03 1.3l-.55.05c-.01-.12-.1-.32-.23-.58l-.7.47c.96.9 1.8 1.9 2.48 2.98-.13.53-.3.82-.48.83l.03.41a31.91 31.91 0 0 1 4.7 8.74l-.39.04c-.8-.54-1.2-.9-1.23-1.1-.27.02-.5.11-.71.29-.49.04-3.78-1.27-9.86-3.93-14.13-6.03-24.6-11.1-31.36-15.22-.13.01-.31.1-.54.24.24 1.02.49 1.65.73 1.93l.02.21-.39.04.04.38.21.38c-.11.01-.17.14-.14.4l-.39.04c-.37.03-.94-.19-1.72-.64-.47-.41-1.45-.86-2.93-1.33l-.18.02.03.37a23.8 23.8 0 0 0 5.37 3.74c1.4 4.8 2.76 8.45 4.11 10.98.22 2.55.89 4.49 1.99 5.8l.2-.01-.28-.96-.02-.22.2-.02c.29 1.87.7 3.16 1.26 3.88 2.8 3.64 4.77 6.39 5.93 8.25 2.8 3.82 5.52 6.3 8.16 7.44l.15.64c.02.53.03.83.06.9.1-.01.15.03.18.13.09.86-.06.45.07 1l.32 1.43.06.24-.07-.11c-.02.16 0 .33.04.52l-.42.1-10.34-6.53-1.8-1.45-2.36-.7.03.13.3.7-.92-.22-.27.07-.24.2c-.02-.1-.08-.13-.18-.11l-.15.03.07.3c.37.43.71.62 1.02.55-.08.46-.11.77-.07.93l-.15.04c-.06-.29-.3-.44-.68-.46l-.15.03.04.16c2.57 2.38 11.39 8.2 17.37 12.86.64-.14 1.54 2.29 2.7 7.3l.03.17c-.78.18-2.68-.21-5.68-1.17-1.82-.61-2.82-.91-2.97-.87-2.42-.8-3.73-1.17-3.93-1.12l-5.8-1.78a52.7 52.7 0 0 0-9.38-2.65c.02.1.01.26-.04.49l.21.25c-.1.02-.13.1-.11.2l.42-.1.02.77c.06.22.34.42.86.58.79-.04 1.2.12 1.3.48 1.86.48 2.79.77 2.82.88 1.85.44 2.9.77 3.17.99 2.4.67 3.64 1.16 3.72 1.48l-.3.07-1.26-.49a61.42 61.42 0 0 1-8.95-2.6l-1.09.25.04.16c4.53 2.12 13.52 5.18 26.95 9.16 1.18.12 2.1.69 2.75 1.7l.24-.23.12-.03c.1.46.28.78.53.96.1-.02.25-.42.46-1.2l8.46 1.99c.39.43.59.68.59.76l-.43.03c-.01-.1-.07-.26-.2-.44l-.53.38a12.2 12.2 0 0 1 1.9 2.23c-.1.41-.24.62-.38.64l.03.3a24.23 24.23 0 0 1 3.54 6.65l-.29.02c-.6-.4-.9-.67-.92-.82-.2.02-.38.08-.54.18-.38.04-2.87-.94-7.5-2.95-10.72-4.59-18.65-8.43-23.8-11.56-.1.01-.24.08-.42.2.18.77.37 1.26.55 1.45l.02.14-.29.02.02.32.15.29c-.08.01-.11.11-.1.3l-.3.03c-.28.02-.7-.14-1.3-.5a6.45 6.45 0 0 0-2.21-1.03l-.15.01.02.3a17.92 17.92 0 0 0 4.09 2.84 46.16 46.16 0 0 0 3.12 8.33c.17 1.95.67 3.42 1.5 4.43l.15-.02-.21-.74-.01-.16h.14c.2 1.4.53 2.4.95 2.94a92.12 92.12 0 0 1 4.5 6.26c3.19 4.4 6.25 6.46 9.19 6.2zm-.2-.76l-1.14.1c-.28-.13-.43-.28-.44-.42l1.95-.17c-.11.32-.23.48-.36.5zm9.24-86.4l-.01-.19.35-.03.07.79h-.18a1.52 1.52 0 0 0-.23-.56zm-38.24-3.84c.2-.45.28-.87.25-1.22l.55-.04c.22-.03.37.1.42.37.03.25-.16.4-.52.42.8.67 1.22 1.03 1.23 1.1l-.17.42c-1.14-.14-1.72-.49-1.76-1.05zm42.73 41.09c-.02-.2.58-.58 1.77-1.14l.36-.04c.03.37-.56.75-1.77 1.15l-.36.03zm4.24-.55l-.38-.16 2.32-5.58c-.13 3.72-.78 5.64-1.94 5.74zm-20.12-23.56l-.07-.79.35-.03.07.79-.35.03zm12.08-.64l.01.2-.55.04c-.01-.18-.29-.42-.8-.72l.38-.03c.42.35.74.53.96.51zm-3.88-1.65l-.73.07-.02-.2.74-.07.01.2zm-1.38-.87l.03.38c-.6-.04-.94-.2-.96-.52l-.01-.2c.4.25.72.36.94.34zm-1.93-.65l.02.22h-.18l-.59-.35-.03-.37.18-.01c.03.37.23.54.6.5zm-1.74-.64l-.93-.11v-.2l.91-.08.02.39zm-18.09-6.4c-1.27-.25-1.92-.53-1.94-.81l.18-.01c.63-.07 1.22.2 1.76.82zm-2.53-1.18l-.18.02c-.25.02-.4-.1-.41-.35h.18c.22-.03.35.08.41.33zm-5.25-.34l.05.6-.2.02c-.01-.15-.1-.34-.23-.58l-.03-.38c.2-.02.34.1.4.34zm5.18 16.89c-1.63-3.33-2.74-5.3-3.32-5.88-1.25-3.6-2.02-5.4-2.33-5.36a58.96 58.96 0 0 0-2.77-6.33c-.02-.24.07-.58.28-1.04.64-.06 1.16.24 1.58.87.05.56-.03 1.1-.24 1.6.3.6.64 1.64 1 3.1l.4-.03-.11-1.18c.2.15.74 1.29 1.6 3.43l.05.6h-.18c-.09-1-.38-1.57-.92-1.7-.23.03-.34.17-.31.42.47.76.76 1.14.84 1.13.27 1.45 2.36 5.45 6.25 12.01l-.35.04c-.17 0-.65-.55-1.47-1.68zm-3.29-10.07a3.9 3.9 0 0 0 1.14 2.47c.02.27-.08.42-.32.43-.05-.46-.43-1.37-1.18-2.68l-.01-.2.37-.02zm12.4 16.24l-3.97-5.03c-2.44-3.74-3.66-5.75-3.69-6.05-3.25-5.95-4.94-9.66-5.07-11.1l-.02-.22c.67.19 6.06 2.83 16.2 7.97.2 2.26 1.24 5.82 3.14 10.67l.1 1.18c.22 2.46-.26 4.3-1.39 5.5l-.74.07c-2.6-.9-4.12-1.9-4.56-2.99zm5.5-9.83l.07.8-.18.02-.07-.81.18-.01zm1.92 11.37l.06.6c-.26.54-.49.83-.7.85l-.18.01c-.04-.52.23-1.01.82-1.46zm9.11 1.61c-.62-.52-1.69-1.96-3.19-4.31-.06-.78-1.18-3.67-3.35-8.66.1-.25.15-.52.13-.8l.35-.04c.72-.05 1.61.27 2.7.97 2.05.4 3.21.81 3.5 1.28l9.31 4.17c.58-.05 1.02.84 1.33 2.67l.06.59-.54.05c.27 1.79.43 2.9.47 3.34.28 3.3-.39 5.03-1.99 5.17l.04.37.94-.08.03.41c-.53.97-1.18 1.5-1.94 1.57-.52.04-1.17-.24-1.94-.85-.02-.25.16-.4.52-.42l-.03-.4-1.13-.1c-2.5-1.68-3.78-2.9-3.85-3.65-.94-.69-1.4-1.1-1.42-1.28zm-6.52 2.56c.22-.35.33-.62.32-.83l.55-.04.04.38-.5.83c-.25.03-.39-.08-.41-.34zM282.23 59c-.15.37-.3.59-.46.63l-.04-.18-.01.01a.4.4 0 0 0-.03-.11l-.21-.28.75-.07zm-1.57.25l.15-.03.11.48-.14.03-.12-.48zm-1.28 1.16c.08.49.11.73.32 1.64l-.15.03-.4-1.73.23.06zm-.71 1.69c-.07-.73.02-.57-.24-1.74l.15-.03.46 1.46.16.7-.27.06c-.07-.32-.07-.09-.26-.45zm.36 1.54c-.05-.18.03-.31.23-.4l.1.45c.04.2-.04.32-.23.37l-.1-.42zm4.47 4.17l.15-.03.17.72-.28.07-.04-.76zm-27.2 4.46c.2.05.35.06.45.04l.03.16c.05.2-.02.3-.2.35l-.15.04-.14-.59zm26.03 3.13l.06-.32c-.2-.51-.35-.95-.43-1.3l-.07-.3c-.05-.17.02-.3.2-.37l.48 2.08.32.69-.26.23a1.53 1.53 0 0 0-.3-.71zm.51 1.6l.15-.03c.02.1.1.24.25.4l.34 1.48-.15.03c-.2-.79-.39-1.42-.59-1.87zm2.98.24c-.02-.1-.1-.24-.25-.41.1-.03.1-.23.02-.62.28-.07.68 1.03 1.2 3.3l.07.32-.28.07-.76-2.66zm4.3 3.99c-1.81-.16-2.83-.8-3.1-1.93l.15-.03-.38-1-.1-.45c-.06-.23-.05-.44 0-.62l.4-.09c.15-.03 2.15 1.42 5.98 4.36l-.05.34c-.52.13-1.49-.07-2.9-.58zm6 7.06v-.13l.28-.03.05.6h-.14c-.03-.1-.08-.24-.18-.44zm-29.05-2.9c.16-.35.23-.66.2-.92l.44-.03c.14-.02.25.08.3.27.03.2-.11.3-.4.33.62.5.94.77.94.82l-.13.31c-.86-.11-1.31-.38-1.35-.79zm32.45 31.19c-.01-.15.44-.44 1.36-.88l.28-.02c.03.28-.42.58-1.32.88l-.32.02zm3.24-.41l-.3-.14 1.77-4.22c-.1 2.82-.58 4.28-1.47 4.36zm-15.28-17.9l-.06-.6.29-.02.05.6-.28.02zm9.18-.5l.01.16-.43.04c-.01-.15-.22-.33-.61-.55l.28-.02c.33.26.58.39.75.37zm-2.95-1.24l-.56.05v-.16l.55-.05v.16zm-1.06-.67l.03.3c-.48-.04-.73-.17-.75-.38l-.01-.16c.31.17.56.25.73.24zm-1.45-.48l.01.14h-.14l-.46-.26-.02-.3h.15c.02.3.18.44.46.42zm-1.31-.48l-.73-.1-.01-.14.71-.06.03.3zm-13.77-4.87c-.95-.2-1.44-.4-1.46-.62l.13-.01c.47-.03.93.17 1.33.63zm-1.91-.9h-.13c-.2.03-.32-.06-.33-.27h.15c.15-.02.25.07.3.27zm-4-.26l.04.46-.15.01c-.01-.1-.07-.26-.17-.44l-.02-.3c.16-.01.26.08.3.27zm3.94 12.82c-1.24-2.51-2.08-4-2.5-4.47-.96-2.74-1.55-4.1-1.79-4.08a43.4 43.4 0 0 0-2.1-4.78c0-.18.06-.44.22-.79.49-.04.88.19 1.18.67.03.43-.02.84-.18 1.22.22.45.47 1.24.76 2.36l.28-.02-.08-.93c.16.12.57 1 1.23 2.63l.03.45-.12.01c-.07-.77-.3-1.2-.7-1.3-.19.01-.28.13-.26.32.38.57.6.85.66.85.2 1.1 1.78 4.13 4.75 9.11l-.28.03c-.11 0-.48-.43-1.1-1.28zm-2.5-7.65c.07.75.36 1.37.86 1.9 0 .2-.07.3-.25.32a7.28 7.28 0 0 0-.87-2.03v-.16l.26-.03zm9.43 12.35l-3.04-3.8c-1.85-2.84-2.78-4.38-2.8-4.62-2.47-4.52-3.76-7.33-3.85-8.43v-.16c.5.13 4.6 2.15 12.29 6.06.15 1.7.95 4.39 2.4 8.09l.08.92c.16 1.86-.2 3.25-1.07 4.16l-.56.05c-1.95-.7-3.1-1.45-3.45-2.27zm4.18-7.46l.05.59-.14.01-.06-.6h.15zm1.46 8.63l.03.46c-.2.42-.38.64-.53.65l-.12.01c-.04-.4.17-.77.62-1.12zm6.91 1.2c-.48-.4-1.3-1.48-2.43-3.25-.05-.6-.9-2.78-2.53-6.57.07-.18.1-.39.08-.6l.28-.03c.55-.04 1.23.2 2.06.72 1.56.3 2.44.63 2.64.97l7.08 3.18c.42-.03.76.64 1.02 2.01l.04.46-.44.03c.22 1.35.35 2.2.38 2.53.21 2.51-.28 3.83-1.51 3.93l.02.3.68-.06.03.3c-.4.73-.88 1.11-1.44 1.16-.41.03-.91-.17-1.5-.6-.01-.2.12-.31.42-.34l-.02-.3-.86-.08c-1.91-1.27-2.9-2.2-2.95-2.78-.69-.51-1.04-.83-1.05-.98zm-4.72 1.34l.43-.04.02.3-.38.64c-.18.01-.29-.08-.3-.28.16-.27.24-.47.23-.62zm-27.56-53.12l-.06-.3-.22-.24c-.18.04-.25.16-.2.35.04.2.15.27.34.23l.14-.04zm2.24-1.13l-.15.04c.05.2.16.27.34.23l.15-.04c-.05-.18-.16-.26-.34-.23zm15.09 8.08l.13.22c0-.05.01-.08.03-.11-.03-.08-.08-.12-.16-.1zm3.91-.04l.08.34.3-.07-.08-.34-.3.07zm-11.46 80.63l.1-.77-.3-.14-.15.01.39 4.62.28-.02-.32-3.7zm.35 4.22l-.28.03v.04l.28-.02v-.05zm2.52 19.39l-.28.02-.1.5.3-.02.08-.5zm-.05-.7c-.78-3.48-.64-3.91-.7-4.64l-.28.02.02.32.01.17.04-.04.15.37c.37 3.44.23 3.84.62 3.8h.14zm5.01-20.83l.1-.31a5.1 5.1 0 0 0-1.18-.37l-.12.02c.01.24.42.45 1.2.66zm2.24-4.18h.14v-.17l-.19-.28-.27.16c.02.21.12.31.32.3zm-9.33 9.07l.28-.02v-.1l-.3.03.02.1zm4.22 18.83l.02.22c.01.12.12.18.3.17l.27-.13a3.71 3.71 0 0 0-.45-1.79l.14-.01-.09-.95c.29-.02.43-.1.42-.23l-.04-.49c-.05-.57-.02-.84-.24-1.13.1 0 .15-.04.15-.1l-.05-.55-.18-.32c.1 0 .15-.04.15-.1l-.17-.2h.14l.06-.77-.01-.18-.28.02-.1.39.02.36a.67.67 0 0 0-.1.43l.17.32h-.13c-.44-1.78-.36-1.77-.57-3 .1-.14.14-.24.13-.31l-.02-.03c0-.13.1-.21.24-.22l.08.64c0 .04-.04.08-.1.43.24.51.34.54.37.8l.28-.01c-.34-1.76-.11-1.05-.3-3.26l-.02-.1.28-.02c.35 2.83.15 1.88.42 2.85-.1.01-.14.05-.14.1.11.12.17.24.19.4l.01.19c.08.99-.11 1.32.43 3.28l-.12.01.16.32.02.3c.28-.02.33.41.34.56l.3-.02c-.69-3.45-.5-4.35-.77-5.31l.13-.01c-.16-.9-.1-.94-.1-1.17a.6.6 0 0 0-.18-.28c.1-.01.14-.05.14-.11v-.06l-.48-2.92c.07-.01.12-.05.1-.12-.3-1.51-.37-1.1-.55-3.13a.96.96 0 0 0-.16-.38c.08-.01.13-.06.12-.16l-.1-1.24-.2-.84c.07 0 .12-.05.1-.16-.12-.46-.2-.88-.22-1.2v-.03c-.03-.2.05.1.12-.06l-.15-.25c-.03-.36.03-.17.02-1.42-.28-2.2-.31-1.97-.32-2.2l.06-.83c-.08.01-.14-.03-.14-.12.12-.94.27-1.42.44-1.43.89.13 1.34.34 1.36.65l.01.16-.3-.14.02.16c.16.3.3.44.44.43l.31-.03-.02-.3.28-.02c.22-.02.4.02.57.1l1.08.67-.29.02.02.32.29-.02.26-.18c.2.23.32.42.33.57l.15-.02-.04-.43.43-.03c1.8.86 2.84 1.27 3.13 1.25l-.12.31c.01.2.12.28.33.27l-.02-.3h.12c.22-.03.42.02.6.11.49.47.98.68 1.49.64 0 .09-.04.14-.14.15.23.4.83.7 1.83.93 1.27.71 3.81 1.71 7.61 3.03 6.72 2.5 7.43 2.4 9.02 2.76l-.02-.3c-.2.02-.4-.02-.58-.11.08-.2.12-.37.11-.48l.13-.01c.57-.05 1.27.19 2.08.74l.02.13-.98.26.02.3c.07-.02.46.06 1.17.22.15-.01.24-.13.25-.35l-.18-.29c.2-.02.74-.01 1.59.02l-.01-.14c.25-.26.45-.38.62-.4l-.16-1.62c.11-.02.28-.07.5-.19.15 0 .3.36.44 1.11l-.12.33.18.3c-.1.02-.15.08-.14.2l.18.3c-.1.01-.14.07-.13.18l.01.15.33-.02c-.02-.23-.02-.83.01-1.8l-.2-.3.18-.01c-.63-7.66-.98-12-1.08-13.04-.01-.14 0-.68.02-1.62-.12 0-.2-.1-.21-.34l.14-.33-.28-1.11c-.02-.27-.01-.71.06-1.33a1.14 1.14 0 0 1-.24-.63l.2 3.28a1.5 1.5 0 0 1-.25-.8 1.1 1.1 0 0 1 .12-.65c-.12-.25-.3-1.06-.57-2.42l.12-.33-.81-5.34c.1-.2.13-.44.11-.72a8.93 8.93 0 0 0-.3-1.42l-1.07-2.58-.32.2c.01.12.08.3.2.52l-.07.9-.86-.1c-.37-.85-.93-1.34-1.63-1.48-.55-1.26-.95-1.9-1.19-1.9l-.15.02.01.2.19.34-.48.4-.66.05c-.2.03-4.66-2.1-13.37-6.38-8.4-3.7-13-5.63-13.82-5.82-.35-1.26-.86-2-1.55-2.2-.21.01-.36.4-.42 1.12l-.32.04-.55-.34-.66.06c-.34.04-.6.96-.78 2.77.11 0 .18.05.2.18-.41.03-1.2-.08-2.39-.35l.01.2c1.02.75 1.73 1.1 2.11 1.07l.01.16c.02.18-.19.38-.63.6-.1-.22-1.9-1.02-5.42-2.4l-.32.2v.2c4.23 1.67 6.57 2.72 7 3.16.2 2.2.59 6 1.17 11.42l.2.34c-.11.01-.17.08-.16.2l.04.36.2.34c-.11.01-.17.08-.16.2l.35 4.1c.1 1.09.42 1.6.98 1.55.15 0 .32.63.5 1.92 0 .13-.03.31-.1.56.1-.01.2.64.31 1.94.68.03 1.05.25 1.08.64l.33-.03a5.7 5.7 0 0 0-.28-1.26c.04-.86.11-1.4.19-1.63a1.5 1.5 0 0 1-.2-.53l-.1-2.85-.18-.34c.1-.01.15-.08.14-.2l-.01-.17-.18-.36c.1-.01.18-.31.26-.9l-.22-.37-.06-.7.19-.02c.4 3.68.9 5.5 1.48 5.45.02.24-.09.36-.33.38l.28 1.08.32-.04-.23-8.8c-.12.02-.19-.04-.2-.17l.1-1.07a1.3 1.3 0 0 0-.24-.68l.14-.4c-.09-1.11-.22-1.93-.4-2.48.06-.75.05-1.58-.03-2.5l-.17-1.98.1-.92c.58-.04 3.43 1.09 8.54 3.42 1.72.67 2.8 1.29 3.2 1.88.02.12-.03.3-.13.56l.48 1.4-.12.72c.1 1.2.45 2.61 1.04 4.22.03.4 0 .7-.08.91l.25 1.08.27 3.2c.11 1.35.4 2.82.9 4.42l.32-.04c-.05-.59.05-.9.29-.92.44-.03.62-.47.55-1.3l.33-.03.25.87.2 2.3.32-.03c0-.09 0-.55.04-1.42l.35-.04.08.9c.02.23.13.34.36.31-.03-1.2.02-1.8.18-1.81-.4-8.35-.49-12.54-.22-12.56-.02-.13-.1-.3-.23-.53l.34-.21c4.67 2.2 7.03 3.51 7.07 3.89-.18 0-.48-.08-.88-.28l-.14.01.03.36c2.09.88 3.17 1.62 3.21 2.23.23 2.63.4-.36 1.27 5.25-.1.23-.15.39-.13.5.44 2.2.9 5.28 1.38 9.21l.33-.02-.2-2.1.33-.02c.03.25.1.45.24.62l-.18.02c.01.11.1.27.23.48.03.36 0 .63-.1.83.19.73.3 1.32.35 1.76l.12 1.3c.2.33.39.48.56.46h.15c-.04-.34-.02-.71.06-1.16.19-.01.31.08.37.3l.22 2.44.29 1.12c-.13 0-.17.07-.17.16 0 .11.09.27.22.48 0 .05 0 .12-.02.18-.3-.15-.75-.32-1.33-.5l-.02-.31c.22-.02.41-.08.58-.18l-.01-.16c-8.22-2.97-12.04-4.3-18.35-7.03-1.6-.5-2.5-.93-2.7-1.3-.18.02-.27.13-.25.33-.79.07-1.57-.12-2.34-.56-3.63-1.27-5.62-2.11-5.98-2.55l-1.72.29c-.18.01-.28-.08-.3-.27l-.02-.3c.47-.05.7-.22.66-.53v-.16c-.6-.38-1.3-.68-2.1-.87l.02.3c.26.4.56.57.92.54l.05.6-.12.34c-.43-.28-.77-.4-1.03-.38l-.28.16-.9-.39-.15.01c.03.34-.08.72-.32 1.12a2 2 0 0 0 .36.9c.04.34.05 1.62.05 3.82l.37 1.11c.01 1.35-.02 1.56.08 2.73l.05.48.17.25h-.15c.1 1.23.02 1.31-.09 2.27l-.15.01-.05-.67-.29.02c.03.2.08.39.2.54.02.17-.07.27-.28.28-.02-.27-.09-.58-.2-.92l.1-.3c-.12-.47-.16-.36-.18-.68l.09-.47c-.08 0-.14-.04-.14-.12-.18.02-.27.12-.26.29l.05.48.21 2.5.2.94c-.07.02-.12.05-.1.13l.16.46.07.85c.06.66.1.65.33 2.09.1-.01.13.02.14.1h-.13c.4 2.34.42 2.49.55 2.87l-.07.03c.14.58.1.25.22.41-.1.01-.15.05-.15.1l.03.41.3-.02.02-.83.02-.01c0-.04 0-.06-.02-.1v-.1h-.02c-.12-.57-.04-.58-.07-.94l-.11-2.1h.14l.16 1.16.04.42.17.24-.15.01c.13 1.65-.27 2.23 1.34 9.83.03.4.37.37 1.07.64a.71.71 0 0 1 .1-.4c-.24-.63-.13-.96-.32-2.17-.01-.1.08-.18.26-.22h.12l-.03 1.16c.02.21.06.63.4 1.26-.1 0-.15-.24-.14-.1zm-.9-56.18l-.04-.54c.21-.02 1.03.26 2.43.86l.03.35c-.33.01-1.13-.2-2.42-.67zm2.6.65l.14-.01c.18-.02.3.1.36.35l-.15.01c-.21.01-.34-.1-.36-.35zm-5.49 7.13l-.15.01-.08-.89.15-.01.08.89zm.1-1.07c-.19 0-.4-.27-.6-.86l.08-1.1-.03-.35.33-.03.21 2.34zm33 7.2l-.05-.53.18-.01c.18-.01.3.09.36.32l.01.2-.14.36c-.22 0-.34-.1-.37-.33zm1.58 8.16l.01.18-.33.02-.04-.5c.18 0 .3.09.36.3zm-.71-2.05l.09-.8.15-.02c.09 1.06.2 1.41.38 2.06-.12.02-.17.13-.15.34l-.32.02-.04-.32a1.1 1.1 0 0 1 .11-.65c-.12-.2-.2-.4-.22-.63zm-2.94 1.02l.15-.01.12 1.3-.15.02-.12-1.31zm1.13 1.4l.19-.01.05.64h-.18l-.06-.63zm2.23.15l-.01-.17.35.15.13 1.46h-.18a8.86 8.86 0 0 0-.3-1.44zm-3.13.74l.33-.02.05.64c.02.21-.08.33-.3.34l-.08-.96zm5.24 3.87l-.23-.82-.01-.15c-.03-.39-.02-.9.03-1.49.07 1.07.15 2.08.2 2.46zm-3.63-.88l-.15.01-.1-1.13.15-.01.1 1.13zm-.88 1.85c.14-.01.23-.23.28-.68l-.32-1.12-.04-.87c.14-.2.23-.3.3-.31l-.06 1 .37 2.26-.05 1.16h-.18a6.5 6.5 0 0 0-.3-1.44zm2.99 11.62l-.01.27c.38.4.69.84.9 1.35-1.79-.4-3.12-1.04-3.98-1.92l.39-.64c1.35.53 2.24.85 2.7.94zm-3.35-1.96l.01.16c-.4-.21-.62-.4-.63-.57l.43-.03c0 .1.07.25.2.44zm-3-1.26c1.22.3 1.91.6 2.1.87l-.15.02c-1.14-.16-1.74-.42-1.79-.75l-.71.06c-.39-.27-.68-.4-.9-.39l-.02-.16.99-.09c.02.18.18.33.47.44zm-1.64-.5c-.17.02-.57-.1-1.18-.33l-.01-.16.43-.03c.5.22.75.4.76.52zm-26.57-9.2l.13-.01.02.3-.43.03c-.01-.16.08-.28.28-.32zm-.34 13.15c.1 0 .15-.05.14-.16l-.07-.74.15-.01v.07l.14 1.76h-.14c-.03-.5-.1-.81-.22-.92zm.36-.88c-.03.07-.06.04-.09 0 .01-.03.05-.08.1 0zm2.05.1l-.08-.99h.14l.08.88.2.78c-.1.01-.13.06-.12.16.16.92.2.83.24 1.28.01.14-.08.24-.26.25l-.2-2.36zm.3 3.43c.05-.55.1-.58.06-.97l.12-.01.08.88h-.12c-.01-.08-.04.25-.15.1zm.15.07l.12-.01.05.48h-.12l-.05-.47zm.09 1.06l.13-.01c0 .08.06.2.18.34.02.24-.14.37-.32.39l.01-.72zm.17 1.36l.15-.01.04.58h-.14l-.05-.57zm.07.8c.17 0 .27.06.3.21l-.26.2c.08-.01.13.02.14.09l-.27.15.09-.64zm1.31 11.23l.02.02s0-.02-.02-.02zm.15.21c.06.1.12.14.15-.08-.11-.1-.15.11-.16-.11h-.1l.09.13-.1-.12h-.01l-.31-.24.17.48v.05l.28-.02v-.09zm-.64.83l-.02-.09-.28.02.06.68c.18-.01.24-.46.24-.6z"/>
    <path fill="url(#a)" d="M65.8 22.2c0-5.83-1.53-11.3-4.23-16.03-7.16-7.33-22.72-9.03-26.58-.03-3.97 9.22 6.66 19.49 11.31 18.67 5.92-1.04-1.04-14.56-1.04-14.56 9.05 16.99 6.96 11.79-9.4 27.4C19.5 53.24 2.79 86.16.35 87.54c-.1.08-.21.13-.33.18H64.2c1.13 0 1.86-1.2 1.35-2.2L48.77 52.45c-.36-.71-.1-1.6.6-2A32.52 32.52 0 0 0 65.8 22.2z" transform="rotate(-3 1588.57 -3107.3)"/>
    <path fill="url(#b)" d="M65.8 22.2c0-5.83-1.53-11.3-4.23-16.03-7.16-7.33-22.72-9.03-26.58-.03-3.97 9.22 6.66 19.49 11.31 18.67 5.92-1.04-1.04-14.56-1.04-14.56 9.05 16.99 6.96 11.79-9.4 27.4C19.5 53.24 2.79 86.16.35 87.54c-.1.08-.21.13-.33.18H64.2c1.13 0 1.86-1.2 1.35-2.2L48.77 52.45c-.36-.71-.1-1.6.6-2A32.52 32.52 0 0 0 65.8 22.2z" transform="rotate(-3 1588.57 -3107.3)"/>
    <path fill="url(#c)" d="M10.62 97.96c2.44-1.39 19.15-34.33 35.5-49.93 16.37-15.6 18.46-10.4 9.4-27.4 0 0-34.63 48.38-47.16 72.3" transform="rotate(-3 1395.07 -2906)"/>
    <path fill="url(#d)" d="M12.88 54.61C36.28 11.77 39.34 7.46 51.52 7.46c6.41 0 12.87 2.87 17.05 7.99A32.7 32.7 0 0 0 41.25.02H1.51C.68.02 0 .69 0 1.52v79.8c2.37-6.09 6.39-14.8 12.88-26.7z" transform="rotate(-3 1393.77 -2955.85)"/>
    <path fill="url(#e)" d="M46.13 48.03c-16.36 15.6-33.07 48.54-35.51 49.93-2.44 1.39-6.53 1.56-8.7-.87C-.4 94.51-4 90.33 15.48 54.61 38.9 11.77 41.95 7.46 54.14 7.46c6.4 0 12.86 2.87 17.04 7.99l.68 1.13c-7.16-7.34-22.72-9.04-26.58-.04-3.97 9.22 6.66 19.49 11.31 18.67 5.92-1.04-1.04-14.56-1.04-14.56 9.03 16.97 6.94 11.77-9.42 27.38z" transform="rotate(-3 1395.07 -2906)"/>
    <path fill="url(#f)" d="M17.4 56.52C40.8 13.68 43.88 9.36 56.06 9.36c5.27 0 10.58 1.96 14.62 5.5a22.22 22.22 0 0 0-16.53-7.4c-12.19 0-15.25 4.31-38.65 47.15C-4 90.33-.4 94.51 1.91 97.1c.34.37.72.68 1.12.94-2.04-2.95-2.94-9.8 14.38-41.5z" opacity=".3" transform="rotate(-3 1395.07 -2906)"/>
    <path fill="#FFD539" d="M379.06 58.93a68.68 68.68 0 1 1-37.87 132.03 68.68 68.68 0 0 1 37.87-132.03"/>
    <path fill="#FFF" d="M394.9 95.9c0 2.02-6.22 18.38 17.95 36.24-3.03 3.3-12.68 4.5-29.1 3.53 4.59-22.89 3.54-35.25 11.15-39.76"/>
    <path fill="#000" d="M388.5 135.8a76.79 76.79 0 0 1-3.79-.32c1.27-5.54 2-10.5 2.6-14.94a3.92 3.92 0 1 0 2.01-7.42 2.45 2.45 0 0 1-1.63 4.53c1.13-8.64 2.14-15.25 6.56-20.57-1.98 6.77-.8 13.71 3 20.38 3.48 6.1 9.15 11.68 14.1 14.58.19.44.08.87-.47 1.35-.54.22-1.11.41-1.7.56a67.58 67.58 0 0 1-20.67 1.84m28.42-5.65a5.89 5.89 0 0 0-10.75-4.56c-7.44-7.06-14.8-19.16-8.52-31.79 2.54-2 5.8-3.8 10.07-5.46-6.34-2.65-13.66-3.46-21.04-2.82a43.42 43.42 0 0 1 4.68-11.1c-6.84-.2-13.92 1.65-20.55 4.87-.43-3.58-.33-7.47.4-12.08-6.5 2.28-12.48 6.58-17.53 12-1.7-3.2-3.01-6.9-3.99-11.5-5.23 4.45-9.28 10.59-12.05 17.45a43.62 43.62 0 0 1-7.67-9.15c-3.29 6.02-4.86 13.2-5 20.58a43.29 43.29 0 0 1-10.67-5.87c-.92 6.8.19 14.07 2.72 21.02-3.57.03-7.37-.46-11.81-1.65 1.58 6.7 5.24 13.11 10.11 18.7a43.3 43.3 0 0 1-11.9 2.8c3.87 5.66 9.55 10.32 16.07 13.79a43.6 43.6 0 0 1-9.88 6.66c5.63 3.9 12.58 6.2 19.9 7.11a43.37 43.37 0 0 1-6.91 9.92c6.67 1.62 14.01 1.28 21.18-.5a43.3 43.3 0 0 1-2.9 11.8c14.93-1.92 29.51-13.8 37.37-27.44 1.75-2.38 3.37-6.07 4.9-11.37.4-1.42.76-2.8 1.1-4.15a71.27 71.27 0 0 0 25.4-1.55c1.93-.5 4.01-1.43 4.88-2.44 1.12-.75 2-1.88 2.4-3.27"/>
    <g>
      <path fill="#2F2527" d="M338.24 185.67l-45.88 15.8c-1.9.66-4-.37-4.66-2.3l-11.79-34.25a3.67 3.67 0 0 1 2.26-4.67l45.88-15.8c1.9-.66 4 .37 4.66 2.3l11.79 34.24a3.67 3.67 0 0 1-2.26 4.68z"/>
      <path fill="#FCC63D" d="M328.73 172.67l-6.16-17.91c-.16-.45.2-.98.8-1.18.6-.2 1.21-.01 1.37.43l6.16 17.91c.16.45-.2.98-.8 1.19-.6.2-1.21 0-1.37-.44z"/>
      <path fill="#FFF" d="M321.3 151.06c-.24-.67.95-1.43 1.76-1.13.8.3.39 1.33-.65 1.54-.52.1-1-.07-1.12-.41z"/>
      <path fill="#FCC63D" d="M317.16 176.66L311 158.74c-.16-.44.2-.97.8-1.18.6-.2 1.21-.01 1.36.44l6.17 17.9c.16.45-.2.98-.8 1.19-.6.2-1.21.01-1.37-.43z"/>
      <g fill="#FFF">
        <path d="M310.73 154.91c-.11-.34.03-.74.37-.99a1.1 1.1 0 0 1 1.12-.11c.72.36.5 1.41-.35 1.62-.5.13-1-.1-1.14-.52zM315.54 186.01l-1.77-5.14c-.16-.45.14-.97.66-1.15.52-.18 1.07.04 1.23.5l1.77 5.14c.15.46-.14.97-.67 1.15-.52.18-1.07-.04-1.22-.5z"/>
      </g>
      <path fill="#F9572B" d="M311.86 177.69l-3.2-9.26c-.14-.44.22-.96.82-1.17.6-.2 1.2-.02 1.36.42l3.19 9.26c.15.44-.22.96-.82 1.17-.6.2-1.2.02-1.35-.42z"/>
      <g fill="#FFF">
        <path d="M307.85 166.03l-1.86-5.4c-.16-.45.2-.98.78-1.19.59-.2 1.19 0 1.34.46l1.86 5.4c.16.45-.2.98-.78 1.18-.59.2-1.19 0-1.34-.45zM304.73 156.98c-.25-.74.85-1.52 1.67-1.19.83.34.53 1.44-.46 1.68-.54.12-1.07-.09-1.21-.5z"/>
      </g>
      <path fill="#FCC63D" d="M304.81 176.02l-4.65-13.51c-.16-.46.2-1 .8-1.21.6-.2 1.2 0 1.37.46l4.65 13.52c.16.46-.2 1-.8 1.2-.6.21-1.21 0-1.37-.46z"/>
      <path fill="#FFF" d="M298.87 158.78c-.1-.3.08-.65.44-.9.42-.28.99-.37 1.37-.2.77.31.3 1.33-.72 1.51-.52.1-.97-.08-1.09-.41z"/>
      <path fill="#F9572B" d="M301.76 185.95l-.9-2.63c-.17-.47.18-1.02.78-1.23.6-.2 1.22.01 1.38.49l.9 2.62c.17.48-.18 1.03-.78 1.23-.6.21-1.22 0-1.38-.48z"/>
      <path fill="#FCC63D" d="M299.78 180.22l-2.43-7.08c-.16-.44.2-.96.8-1.17.6-.2 1.21-.02 1.37.42l2.43 7.09c.16.44-.2.96-.8 1.17-.6.2-1.21.01-1.37-.43z"/>
      <g fill="#FFF">
        <path d="M297.44 170.4l-2.12-6.15c-.15-.45.14-.95.65-1.13.52-.18 1.06.04 1.21.5l2.12 6.15c.16.45-.14.95-.65 1.13-.51.18-1.05-.04-1.2-.5zM294.08 160.63c-.25-.73.7-1.45 1.44-1.1.74.36.51 1.43-.35 1.63-.48.1-.95-.12-1.1-.53zM298.72 191l-3.98-11.57c-.15-.44.14-.95.65-1.13.51-.17 1.06.05 1.21.5l3.98 11.55c.15.45-.14.96-.65 1.13-.51.18-1.06-.04-1.21-.49z"/>
      </g>
      <path fill="#F9572B" d="M292.98 176.9l-3.68-10.68c-.15-.45.2-.98.8-1.19.6-.2 1.22 0 1.37.44l3.68 10.68c.15.44-.21.97-.81 1.18-.6.2-1.21.01-1.36-.44z"/>
      <path fill="#FFF" d="M288.02 162.51c-.22-.65.91-1.4 1.73-1.14.82.25.5 1.26-.5 1.53-.56.15-1.1-.02-1.23-.39z"/>
      <path fill="#F9572B" d="M285.44 173.79l-1.92-5.55c-.16-.46.2-1 .8-1.21.6-.21 1.21 0 1.37.46l1.92 5.55c.16.47-.2 1.01-.8 1.22-.6.2-1.21 0-1.37-.47z"/>
      <path fill="#FFF" d="M282.24 164.5c-.1-.3.1-.68.49-.92.41-.27.97-.34 1.34-.17.73.32.29 1.3-.71 1.5-.53.1-1-.06-1.12-.4z"/>
      <path fill="#F9572B" d="M318.21 160.9l-1.42-4.13c-.16-.46.2-1 .8-1.2.6-.2 1.21 0 1.37.45l1.42 4.14c.16.45-.2.99-.8 1.2-.6.2-1.21 0-1.37-.46z"/>
      <g fill="#FFF">
        <path d="M322 171.5l-2.66-7.76c-.16-.45.13-.95.64-1.13.51-.17 1.05.05 1.2.5l2.67 7.75c.16.44-.13.95-.64 1.12-.51.18-1.05-.04-1.2-.49zM315.7 153.18c-.11-.33.02-.71.34-.95.33-.26.8-.3 1.14-.11.71.4.41 1.46-.46 1.6-.45.07-.89-.15-1.02-.54z"/>
      </g>
    </g>
    <g>
      <path fill="#423436" d="M383.53 142.43l-14.2 46.4a3.67 3.67 0 0 1-4.59 2.42l-34.64-10.59a3.67 3.67 0 0 1-2.46-4.57l14.2-46.41a3.67 3.67 0 0 1 4.59-2.42l34.64 10.6a3.67 3.67 0 0 1 2.46 4.57z"/>
      <path fill="#FCC63D" d="M367.42 142.48l-18.12-5.54c-.45-.14-.66-.74-.48-1.35.19-.6.7-.98 1.15-.84l18.12 5.53c.45.14.67.75.48 1.35-.18.6-.7.99-1.15.85z"/>
      <path fill="#FFF" d="M345.56 135.8c-.67-.21-.6-1.62.13-2.1.71-.48 1.3.47.86 1.43-.23.49-.65.77-1 .67z"/>
      <path fill="#FCC63D" d="M363.84 154.18l-18.12-5.54c-.45-.13-.66-.74-.48-1.34.19-.6.7-.99 1.16-.85l18.11 5.54c.45.14.67.74.48 1.35-.18.6-.7.98-1.15.84z"/>
      <g fill="#FFF">
        <path d="M342.47 146.6c-.35-.1-.58-.46-.59-.87 0-.4.23-.8.57-.98.72-.37 1.44.43 1.11 1.24-.19.47-.67.74-1.09.61zM370.46 161l-5.2-1.6c-.47-.13-.7-.67-.55-1.2.17-.53.67-.84 1.13-.7l5.2 1.59c.46.14.7.68.54 1.2-.16.53-.66.85-1.12.7z"/>
      </g>
      <path fill="#F9572B" d="M361.56 159.08l-9.37-2.86c-.44-.14-.65-.74-.47-1.34.19-.6.7-.99 1.14-.85l9.37 2.86c.44.13.65.74.47 1.34-.19.6-.7.99-1.14.85z"/>
      <g fill="#FFF">
        <path d="M349.77 155.47l-5.46-1.67c-.46-.14-.68-.73-.5-1.33.18-.59.7-.96 1.15-.82l5.46 1.67c.46.14.68.74.5 1.33-.18.6-.7.96-1.15.82zM340.61 152.67c-.74-.22-.73-1.58.03-2.05.75-.46 1.47.43 1.08 1.36-.21.52-.7.82-1.1.7z"/>
      </g>
      <path fill="#FCC63D" d="M356.07 163.8l-13.67-4.18c-.47-.14-.7-.74-.51-1.35.18-.6.71-.98 1.18-.84l13.67 4.18c.47.14.7.75.51 1.36-.18.6-.71.98-1.18.83z"/>
      <path fill="#FFF" d="M338.63 158.47c-.3-.09-.48-.44-.47-.88.01-.5.28-1.02.64-1.23.71-.44 1.25.54.8 1.48-.23.47-.64.73-.97.63z"/>
      <path fill="#F9572B" d="M362.3 172.11l-2.65-.81c-.48-.15-.72-.76-.53-1.36.18-.61.72-.98 1.2-.84l2.66.82c.48.14.71.75.53 1.36-.19.6-.73.98-1.2.83z"/>
      <path fill="#FCC63D" d="M356.51 170.34l-7.16-2.2c-.45-.13-.66-.73-.47-1.34.18-.6.7-.98 1.14-.85l7.16 2.2c.45.13.66.73.48 1.34-.19.6-.7.98-1.15.85z"/>
      <g fill="#FFF">
        <path d="M347.2 166.46l-6.23-1.9c-.45-.14-.7-.67-.53-1.19.16-.52.65-.83 1.1-.69l6.23 1.9c.45.14.7.68.53 1.2-.16.51-.65.82-1.1.68zM337.31 163.44c-.74-.22-.77-1.41-.04-1.8.72-.4 1.46.41 1.1 1.23-.19.44-.65.7-1.06.57zM364.6 177.53l-11.69-3.57c-.45-.14-.69-.68-.53-1.2.16-.51.65-.82 1.1-.68l11.7 3.57c.45.14.69.67.53 1.19-.16.52-.66.83-1.11.69z"/>
      </g>
      <path fill="#F9572B" d="M349.82 173.89l-10.8-3.3c-.45-.14-.67-.74-.48-1.35.18-.6.7-.98 1.15-.85l10.8 3.3c.45.14.67.75.48 1.35-.19.6-.7.99-1.15.85z"/>
      <path fill="#FFF" d="M335.27 169.44c-.66-.2-.6-1.55.1-2.06.68-.52 1.3.33.94 1.3-.21.54-.67.88-1.04.76z"/>
      <path fill="#F9572B" d="M342.87 178.17l-5.6-1.72c-.48-.14-.7-.75-.52-1.36.18-.6.71-.98 1.18-.83l5.62 1.71c.47.15.7.75.51 1.36-.18.6-.72.98-1.19.84z"/>
      <path fill="#FFF" d="M333.48 175.3c-.3-.1-.5-.48-.46-.95.03-.49.3-.98.65-1.18.7-.4 1.23.53.8 1.46-.22.49-.64.77-.99.67z"/>
      <path fill="#F9572B" d="M351.71 144.08l-4.18-1.28c-.46-.14-.68-.75-.5-1.35.19-.61.71-.99 1.17-.85l4.18 1.28c.47.14.69.75.5 1.35-.18.61-.7.99-1.17.85z"/>
      <g fill="#FFF">
        <path d="M362.51 147.23l-7.84-2.4c-.45-.14-.69-.67-.53-1.18.16-.52.65-.82 1.1-.69l7.84 2.4c.46.14.7.67.54 1.19-.16.51-.66.82-1.1.68zM344 141.57c-.34-.1-.57-.44-.58-.83-.02-.42.23-.83.58-1 .74-.33 1.43.53 1.03 1.32-.21.4-.65.63-1.04.5z"/>
      </g>
    </g>
    <g>
      <path fill="#4B3C3E" d="M161.06 120.31l11.02 62.48a4.8 4.8 0 0 1-3.92 5.54l-46.64 8.23a4.8 4.8 0 0 1-5.58-3.87l-11.02-62.48a4.8 4.8 0 0 1 3.92-5.54l46.64-8.23a4.8 4.8 0 0 1 5.58 3.87z"/>
      <path fill="#FCC63D" d="M142.33 129.93l-24.4 4.3c-.6.11-1.2-.47-1.35-1.28-.15-.82.23-1.56.84-1.67l24.39-4.3c.6-.11 1.21.46 1.36 1.28.14.82-.23 1.56-.84 1.67z"/>
      <path fill="#FFF" d="M112.9 135.12c-.91.16-1.65-1.53-1.1-2.52.55-.97 1.8-.22 1.85 1.16.03.7-.29 1.28-.76 1.36z"/>
      <path fill="#FCC63D" d="M145.1 145.69l-24.38 4.3c-.61.1-1.22-.47-1.36-1.28-.15-.82.23-1.57.83-1.68l24.4-4.3c.6-.1 1.21.47 1.36 1.29.14.81-.24 1.56-.84 1.67z"/>
      <g fill="#FFF">
        <path d="M115.71 149.54c-.46.08-.95-.19-1.2-.67a1.45 1.45 0 0 1 .08-1.47c.62-.86 1.93-.36 2.03.78.06.66-.34 1.26-.9 1.36zM156.86 149.7l-7 1.24c-.63.1-1.23-.38-1.35-1.1-.13-.7.27-1.37.89-1.48l7-1.23c.62-.11 1.22.38 1.35 1.09.12.7-.28 1.37-.9 1.48z"/>
      </g>
      <path fill="#F9572B" d="M145.36 152.75l-12.61 2.23c-.6.1-1.2-.47-1.35-1.3-.14-.8.23-1.55.82-1.66l12.61-2.22c.6-.1 1.2.47 1.35 1.28.14.82-.23 1.57-.82 1.67z"/>
      <g fill="#FFF">
        <path d="M129.48 155.54l-7.36 1.3c-.61.1-1.22-.45-1.36-1.25-.15-.8.24-1.54.85-1.65l7.35-1.3c.62-.1 1.23.46 1.37 1.26.15.8-.24 1.54-.85 1.64zM117.15 157.72c-1 .18-1.78-1.4-1.18-2.4.6-1 1.96-.38 2.06.93.06.73-.32 1.37-.88 1.47z"/>
      </g>
      <path fill="#FCC63D" d="M141.77 161.5l-18.41 3.25c-.63.12-1.26-.46-1.4-1.27-.14-.82.25-1.57.88-1.68l18.4-3.25c.63-.1 1.26.47 1.4 1.28.15.82-.25 1.57-.87 1.68z"/>
      <path fill="#FFF" d="M118.28 165.65c-.4.07-.82-.23-1.07-.75-.28-.6-.28-1.35.01-1.81.58-.93 1.8-.11 1.82 1.24.01.68-.3 1.24-.76 1.32z"/>
      <path fill="#F9572B" d="M153.96 167.48l-3.58.63c-.64.12-1.28-.45-1.43-1.27-.14-.81.27-1.57.91-1.68l3.58-.63c.64-.12 1.28.45 1.42 1.27.15.82-.26 1.57-.9 1.68z"/>
      <path fill="#FCC63D" d="M146.16 168.86l-9.64 1.7c-.6.1-1.2-.47-1.35-1.29-.15-.81.22-1.56.82-1.67l9.65-1.7c.6-.1 1.2.47 1.35 1.29.14.81-.23 1.56-.83 1.67z"/>
      <g fill="#FFF">
        <path d="M133 169.88l-8.38 1.47c-.6.11-1.2-.37-1.32-1.07-.13-.7.27-1.35.88-1.46l8.38-1.48c.61-.1 1.2.38 1.33 1.07.12.7-.27 1.36-.88 1.47zM119.7 172.22c-1 .18-1.74-1.2-1.13-2.08.61-.89 1.95-.38 2.02.78.05.64-.34 1.2-.9 1.3zM159.85 172.44l-15.74 2.77c-.61.1-1.2-.37-1.33-1.07-.12-.7.27-1.35.88-1.46l15.74-2.78c.61-.1 1.2.38 1.33 1.07.12.7-.27 1.36-.88 1.47z"/>
      </g>
      <path fill="#F9572B" d="M140.47 176.97l-14.54 2.56c-.61.11-1.22-.46-1.36-1.28-.15-.82.23-1.56.84-1.67l14.53-2.56c.61-.11 1.22.46 1.37 1.28.14.81-.24 1.56-.84 1.67z"/>
      <path fill="#FFF" d="M120.88 180.42c-.88.16-1.62-1.45-1.12-2.46.5-1 1.73-.39 1.87.95.08.76-.25 1.42-.75 1.51z"/>
      <path fill="#F9572B" d="M134.92 186.07l-7.56 1.33c-.63.12-1.26-.46-1.4-1.27-.15-.82.25-1.57.88-1.68l7.56-1.33c.63-.11 1.26.46 1.4 1.27.15.82-.25 1.57-.88 1.68z"/>
      <path fill="#FFF" d="M122.27 188.3c-.4.07-.86-.26-1.1-.82-.25-.59-.23-1.33.06-1.77.57-.87 1.75-.1 1.8 1.23.03.7-.29 1.28-.76 1.36z"/>
      <path fill="#F9572B" d="M124.98 141.11l-5.63 1c-.62.1-1.24-.47-1.38-1.28-.15-.82.24-1.57.86-1.68l5.63-.99c.62-.11 1.24.46 1.39 1.28.14.81-.25 1.56-.87 1.67z"/>
      <g fill="#FFF">
        <path d="M139.43 138.38l-10.56 1.86c-.6.1-1.2-.37-1.32-1.06-.12-.7.27-1.35.88-1.45l10.56-1.87c.6-.1 1.2.37 1.32 1.07.12.69-.27 1.34-.88 1.45zM114.5 142.77c-.45.08-.92-.17-1.17-.62a1.4 1.4 0 0 1 .1-1.5c.66-.84 1.97-.24 1.97.92 0 .6-.38 1.11-.9 1.2z"/>
      </g>
    </g>
    <g>
      <path fill="#403335" d="M186.18 145.13l21.69 36.1c.9 1.5.4 3.46-1.11 4.37l-26.95 16.2a3.19 3.19 0 0 1-4.38-1.08l-21.69-36.1c-.9-1.5-.4-3.46 1.1-4.37l26.96-16.2a3.19 3.19 0 0 1 4.38 1.08z"/>
      <path fill="#FCC63D" d="M176.86 155.55l-14.1 8.47c-.35.2-.86 0-1.15-.48-.28-.47-.22-1.02.13-1.23l14.1-8.47c.34-.21.86 0 1.14.47.28.47.23 1.03-.12 1.24z"/>
      <path fill="#FFF" d="M159.85 165.77c-.52.31-1.38-.56-1.28-1.3.11-.74 1.06-.57 1.42.27.19.43.13.87-.14 1.03z"/>
      <path fill="#FCC63D" d="M182.33 164.65l-14.1 8.47c-.35.21-.86 0-1.14-.47-.29-.47-.23-1.02.12-1.24l14.1-8.46c.34-.22.86 0 1.14.47.28.47.23 1.02-.12 1.23z"/>
      <g fill="#FFF">
        <path d="M165.03 174.03c-.27.17-.64.11-.9-.12a.96.96 0 0 1-.3-.94c.17-.68 1.1-.68 1.44 0 .19.4.08.87-.24 1.06zM190.56 164.34l-4.04 2.44c-.36.21-.85.05-1.1-.36-.24-.4-.15-.92.2-1.13l4.05-2.43c.36-.22.85-.06 1.1.35.24.41.15.92-.2 1.13z"/>
      </g>
      <path fill="#F9572B" d="M184.16 168.97l-7.28 4.38c-.35.2-.86 0-1.14-.48-.29-.47-.24-1.02.11-1.23l7.29-4.38c.34-.2.85.01 1.13.48.29.47.24 1.02-.1 1.23z"/>
      <g fill="#FFF">
        <path d="M174.98 174.48l-4.24 2.55c-.36.22-.87.01-1.15-.45-.28-.46-.21-1 .14-1.22l4.25-2.55c.35-.22.87-.02 1.15.45.27.46.21 1-.15 1.22zM167.86 178.76c-.58.35-1.44-.45-1.3-1.2.13-.77 1.12-.71 1.5.08.2.44.12.93-.2 1.12z"/>
      </g>
      <path fill="#FCC63D" d="M184.02 175.25l-10.64 6.4c-.36.21-.88 0-1.17-.47-.28-.47-.21-1.03.15-1.24l10.63-6.4c.37-.21.9 0 1.17.46.29.48.22 1.03-.14 1.25z"/>
      <path fill="#FFF" d="M170.45 183.4c-.23.14-.57.06-.84-.2-.32-.3-.5-.78-.43-1.13.14-.71 1.09-.5 1.43.34.17.42.1.84-.16 1z"/>
      <path fill="#F9572B" d="M193 176.05l-2.07 1.25c-.37.22-.9.02-1.19-.45-.28-.47-.2-1.04.17-1.26l2.06-1.24c.37-.23.9-.03 1.19.45.28.47.21 1.03-.16 1.25z"/>
      <path fill="#FCC63D" d="M188.5 178.76l-5.58 3.35c-.35.2-.86 0-1.14-.48-.29-.47-.23-1.02.11-1.23l5.57-3.34c.35-.21.86 0 1.15.47.28.47.23 1.02-.12 1.23z"/>
      <g fill="#FFF">
        <path d="M180.58 182.52l-4.84 2.91c-.35.21-.84.06-1.08-.35-.24-.4-.15-.9.2-1.11l4.84-2.91c.35-.21.84-.06 1.08.35.24.4.15.9-.2 1.11zM172.89 187.14c-.57.35-1.36-.33-1.2-1.02.18-.7 1.13-.7 1.45 0 .17.39.07.83-.25 1.02zM197.83 177.72l-9.1 5.47c-.35.2-.83.05-1.07-.35-.25-.4-.16-.9.2-1.12l9.09-5.46c.35-.21.83-.06 1.07.35.25.4.16.9-.2 1.11z"/>
      </g>
      <path fill="#F9572B" d="M186.9 185.14l-8.4 5.05c-.36.21-.87 0-1.16-.47-.28-.47-.23-1.02.13-1.24l8.4-5.04c.35-.21.86 0 1.15.47.28.47.22 1.02-.13 1.23z"/>
      <path fill="#FFF" d="M175.58 191.94c-.51.31-1.35-.51-1.28-1.26.07-.74.97-.65 1.38.15.23.45.19.94-.1 1.11z"/>
      <path fill="#F9572B" d="M185.62 192.1l-4.37 2.63c-.36.22-.89.01-1.17-.46-.29-.47-.22-1.03.15-1.25l4.36-2.62c.37-.22.9-.02 1.18.45.28.48.22 1.04-.15 1.25z"/>
      <path fill="#FFF" d="M178.31 196.5c-.23.14-.6.04-.87-.25-.3-.3-.46-.77-.39-1.11.15-.68 1.06-.48 1.4.33.2.43.13.86-.14 1.02z"/>
      <path fill="#F9572B" d="M168.76 166.6l-3.25 1.96c-.36.22-.88 0-1.16-.46-.28-.47-.22-1.03.14-1.25l3.25-1.95c.36-.22.88-.01 1.16.46.29.47.22 1.03-.14 1.25z"/>
      <g fill="#FFF">
        <path d="M177.07 161.47l-6.1 3.67c-.35.2-.83.05-1.07-.35-.24-.4-.15-.9.2-1.1l6.1-3.67c.35-.21.83-.06 1.07.34.24.4.15.9-.2 1.11zM162.66 170.13c-.26.15-.6.1-.87-.11a.93.93 0 0 1-.3-.96c.21-.67 1.17-.6 1.45.1.14.38.02.79-.28.97z"/>
      </g>
    </g>
    <g>
      <path fill="#3C2F31" d="M228.51 165.01l-14.87 22.9a2.07 2.07 0 0 1-2.86.6l-17.1-11.1a2.07 2.07 0 0 1-.61-2.86l14.87-22.9a2.06 2.06 0 0 1 2.86-.6l17.1 11.1c.95.63 1.23 1.9.61 2.86z"/>
      <path fill="#FCC63D" d="M219.8 162.54l-8.95-5.8c-.22-.15-.24-.5-.05-.8.2-.3.54-.43.76-.29l8.94 5.8c.22.15.24.51.05.81-.2.3-.53.43-.76.28z"/>
      <path fill="#FFF" d="M209 155.54c-.32-.22-.06-.97.4-1.12.46-.14.63.46.25.9-.2.24-.47.33-.64.22z"/>
      <path fill="#FCC63D" d="M216.04 168.32l-8.94-5.81c-.22-.14-.24-.5-.05-.8.2-.3.54-.43.76-.28l8.94 5.8c.22.15.24.5.05.8-.2.3-.53.43-.76.29z"/>
      <g fill="#FFF">
        <path d="M205.66 160.9c-.17-.11-.24-.34-.18-.56.06-.22.25-.4.46-.44.44-.1.71.45.4.84-.17.23-.47.3-.68.16zM218.56 173.03l-2.56-1.67c-.23-.15-.28-.48-.1-.74.16-.26.48-.35.71-.2l2.57 1.66c.22.15.27.48.1.74s-.49.35-.72.2z"/>
      </g>
      <path fill="#F9572B" d="M214.05 170.61l-4.62-3c-.22-.14-.24-.5-.05-.8.2-.3.53-.42.75-.28l4.62 3c.22.14.24.5.05.8-.2.3-.53.42-.75.28z"/>
      <g fill="#FFF">
        <path d="M208.23 166.83l-2.7-1.75c-.22-.15-.25-.5-.06-.8.2-.29.53-.4.76-.26l2.7 1.75c.22.15.24.5.05.8-.19.29-.52.4-.75.26zM203.71 163.9c-.36-.24-.14-.97.34-1.1.48-.14.73.45.37.9-.2.24-.5.33-.7.2z"/>
      </g>
      <path fill="#FCC63D" d="M210.35 172.31l-6.75-4.38c-.23-.15-.26-.51-.06-.8.2-.3.54-.43.77-.28l6.74 4.38c.23.15.26.51.07.81-.2.3-.54.42-.77.27z"/>
      <path fill="#FFF" d="M201.74 166.73c-.14-.1-.19-.32-.11-.56.08-.26.3-.5.53-.56.45-.13.6.49.2.92-.19.22-.45.3-.62.2z"/>
      <path fill="#F9572B" d="M212.43 177.77l-1.3-.85c-.24-.15-.28-.52-.08-.82.2-.3.54-.41.78-.26l1.3.85c.24.15.28.52.08.82-.2.3-.54.42-.78.26z"/>
      <path fill="#FCC63D" d="M209.57 175.92l-3.53-2.3c-.22-.14-.24-.5-.05-.8.2-.3.53-.42.75-.28l3.54 2.3c.22.14.24.5.04.8-.19.3-.53.42-.75.28z"/>
      <g fill="#FFF">
        <path d="M205.14 172.38l-3.08-2c-.22-.14-.27-.47-.1-.73.17-.25.48-.34.7-.2l3.08 2c.22.14.27.47.1.73-.16.25-.48.34-.7.2zM200.26 169.2c-.37-.23-.2-.88.26-.98.45-.1.72.46.4.84-.17.22-.46.28-.66.15zM212.83 181.06l-5.76-3.75c-.23-.14-.27-.47-.1-.72.16-.26.47-.35.7-.2l5.77 3.74c.22.15.27.47.1.73s-.48.35-.7.2z"/>
      </g>
      <path fill="#F9572B" d="M205.4 176.8l-5.33-3.46c-.22-.15-.24-.5-.05-.8.2-.3.53-.43.76-.28l5.33 3.46c.22.14.24.5.05.8-.2.3-.53.42-.76.28z"/>
      <path fill="#FFF" d="M198.22 172.14c-.32-.21-.08-.94.38-1.1.45-.18.65.38.3.84-.2.26-.5.38-.68.26z"/>
      <path fill="#F9572B" d="M200.98 178.04l-2.77-1.8c-.23-.15-.26-.52-.06-.82.2-.3.54-.42.77-.27l2.77 1.8c.23.15.26.52.07.82-.2.3-.54.42-.78.27z"/>
      <path fill="#FFF" d="M196.35 175.03c-.15-.1-.2-.34-.1-.58.09-.26.31-.5.53-.55.44-.1.58.49.2.92-.19.23-.46.32-.63.2z"/>
      <path fill="#F9572B" d="M211.05 160.97l-2.06-1.34c-.23-.15-.26-.51-.06-.81.2-.3.53-.42.76-.27l2.07 1.34c.22.14.25.5.06.8-.2.3-.54.43-.77.28z"/>
      <g fill="#FFF">
        <path d="M216.4 164.35l-3.87-2.51c-.22-.15-.27-.47-.1-.73.17-.25.48-.34.7-.2l3.87 2.52c.23.14.27.47.1.72-.16.25-.47.34-.7.2zM207.27 158.42c-.17-.11-.24-.33-.19-.54a.6.6 0 0 1 .47-.45c.46-.07.7.5.35.87-.17.19-.44.24-.63.12z"/>
      </g>
    </g>
    <g>
      <path fill="#4B3C3E" d="M423.26 125.52l-6.62 53.89a4.1 4.1 0 0 1-4.6 3.55l-40.22-4.93a4.1 4.1 0 0 1-3.6-4.57l6.62-53.89a4.1 4.1 0 0 1 4.6-3.55l40.22 4.94a4.1 4.1 0 0 1 3.6 4.56z"/>
      <path fill="#FCC63D" d="M405.52 128.7l-21.04-2.58c-.52-.06-.87-.68-.79-1.39.09-.7.58-1.22 1.1-1.15l21.04 2.58c.53.06.88.69.8 1.39-.1.7-.58 1.22-1.1 1.16z"/>
      <path fill="#FFF" d="M380.13 125.59c-.78-.1-.96-1.66-.26-2.33.7-.67 1.53.26 1.23 1.4-.16.58-.56.98-.97.93z"/>
      <path fill="#FCC63D" d="M403.85 142.3l-21.04-2.59c-.52-.06-.87-.68-.79-1.39.09-.7.58-1.22 1.1-1.15l21.05 2.58c.52.06.87.69.79 1.39-.09.7-.58 1.22-1.1 1.16z"/>
      <g fill="#FFF">
        <path d="M378.83 138.1c-.4-.05-.73-.4-.81-.85-.09-.45.09-.93.43-1.19.72-.55 1.67.2 1.47 1.15-.12.56-.6.95-1.09.89zM412.46 148.52l-6.04-.74c-.53-.07-.9-.62-.83-1.23.08-.61.57-1.06 1.1-.99l6.05.74c.53.07.9.62.83 1.23-.08.61-.57 1.06-1.1 1z"/>
      </g>
      <path fill="#F9572B" d="M402.29 148.14l-10.88-1.33c-.51-.07-.86-.69-.77-1.4.08-.7.57-1.22 1.09-1.15l10.87 1.33c.52.07.86.69.78 1.4-.09.7-.58 1.21-1.1 1.15z"/>
      <g fill="#FFF">
        <path d="M388.6 146.45l-6.35-.78c-.53-.06-.89-.67-.8-1.36.08-.7.58-1.2 1.11-1.13l6.34.77c.53.07.9.68.8 1.37-.08.7-.58 1.2-1.1 1.13zM377.96 145.15c-.86-.1-1.1-1.6-.36-2.27.73-.66 1.7.19 1.45 1.29-.14.6-.6 1.04-1.09.98z"/>
      </g>
      <path fill="#FCC63D" d="M397.16 154.4l-15.88-1.94c-.54-.07-.9-.7-.82-1.4.09-.7.6-1.22 1.14-1.15l15.87 1.95c.54.07.91.7.83 1.4-.09.7-.6 1.21-1.14 1.15z"/>
      <path fill="#FFF" d="M376.9 151.92c-.34-.04-.61-.4-.68-.88-.09-.56.1-1.18.46-1.48.7-.62 1.5.36 1.17 1.47-.16.56-.55.94-.95.9z"/>
      <path fill="#F9572B" d="M405.64 162.35l-3.08-.38c-.56-.07-.94-.7-.85-1.4.09-.7.6-1.22 1.16-1.15l3.09.38c.55.07.93.7.85 1.4-.1.7-.61 1.22-1.17 1.15z"/>
      <path fill="#FCC63D" d="M398.92 161.52l-8.32-1.02c-.52-.06-.87-.69-.78-1.39.08-.7.57-1.22 1.1-1.16l8.3 1.02c.53.07.88.69.79 1.4-.09.7-.58 1.22-1.1 1.15z"/>
      <g fill="#FFF">
        <path d="M387.9 159.06l-7.23-.88c-.53-.07-.9-.61-.82-1.21.07-.6.56-1.04 1.09-.98l7.23.89c.52.06.89.6.81 1.2-.07.61-.56 1.05-1.08.98zM376.42 157.65c-.86-.1-1.12-1.4-.4-1.98.72-.58 1.69.18 1.46 1.14-.13.53-.59.9-1.06.84zM409.22 167.87l-13.57-1.66c-.53-.07-.9-.6-.82-1.21.08-.6.56-1.04 1.09-.98l13.57 1.67c.53.06.9.6.82 1.2-.07.61-.56 1.05-1.09.98z"/>
      </g>
      <path fill="#F9572B" d="M392.23 166.74l-12.54-1.54c-.53-.07-.88-.7-.8-1.4.1-.7.59-1.22 1.11-1.15l12.54 1.54c.53.06.88.68.8 1.39-.1.7-.59 1.22-1.11 1.16z"/>
      <path fill="#FFF" d="M375.34 164.66c-.77-.1-.96-1.6-.3-2.3.65-.7 1.5.12 1.29 1.25-.13.64-.56 1.1-1 1.05z"/>
      <path fill="#F9572B" d="M385.41 172.8l-6.52-.8c-.54-.07-.92-.7-.83-1.4.09-.7.6-1.22 1.14-1.15l6.52.8c.55.07.92.69.83 1.4-.08.7-.6 1.21-1.14 1.15z"/>
      <path fill="#FFF" d="M374.5 171.46c-.35-.05-.63-.43-.69-.95-.06-.54.14-1.14.49-1.43.69-.58 1.45.35 1.16 1.45-.15.58-.55.98-.95.93z"/>
      <path fill="#F9572B" d="M388.53 133.52l-4.86-.6c-.53-.06-.9-.69-.81-1.4.08-.7.59-1.21 1.12-1.15l4.86.6c.53.07.9.69.81 1.4-.08.7-.59 1.21-1.12 1.15z"/>
      <g fill="#FFF">
        <path d="M401.04 134.9l-9.11-1.12c-.52-.07-.89-.6-.82-1.2.08-.6.56-1.04 1.09-.97l9.1 1.12c.53.06.9.6.82 1.2-.07.6-.56 1.03-1.08.96zM379.53 132.25c-.39-.04-.7-.37-.8-.8-.1-.46.1-.96.46-1.2.75-.52 1.67.3 1.38 1.25-.15.48-.59.8-1.04.75z"/>
      </g>
    </g>
    <g>
      <path fill="#4B3C3E" d="M287.77 193.12l-59.99 20.66a4.8 4.8 0 0 1-6.08-3l-15.42-44.79a4.8 4.8 0 0 1 2.95-6.1l59.99-20.67a4.8 4.8 0 0 1 6.08 3l15.42 44.79a4.8 4.8 0 0 1-2.95 6.1z"/>
      <path fill="#FCC63D" d="M275.34 176.13l-8.06-23.42c-.2-.59.27-1.28 1.05-1.55s1.58-.01 1.78.57l8.07 23.42c.2.58-.27 1.27-1.06 1.54-.78.27-1.58.02-1.78-.56z"/>
      <path fill="#FFF" d="M265.61 147.87c-.3-.87 1.25-1.87 2.32-1.48 1.05.4.5 1.74-.86 2.01-.68.14-1.3-.09-1.46-.53z"/>
      <path fill="#FCC63D" d="M260.21 181.33l-8.06-23.41c-.2-.59.27-1.28 1.05-1.55.79-.27 1.58-.01 1.78.57l8.07 23.42c.2.58-.27 1.27-1.06 1.54-.78.27-1.58.02-1.78-.57z"/>
      <g fill="#FFF">
        <path d="M251.8 152.9c-.15-.44.05-.97.48-1.29a1.45 1.45 0 0 1 1.47-.15c.94.48.66 1.85-.46 2.13-.64.16-1.3-.14-1.48-.68zM258.09 193.57l-2.32-6.73c-.2-.6.18-1.26.87-1.5.68-.23 1.4.06 1.6.65l2.32 6.73c.2.59-.19 1.26-.87 1.5-.68.23-1.4-.06-1.6-.65z"/>
      </g>
      <path fill="#F9572B" d="M253.27 182.69l-4.17-12.11c-.2-.58.28-1.26 1.07-1.53.78-.27 1.57-.02 1.77.55l4.17 12.1c.2.58-.28 1.26-1.06 1.53s-1.58.03-1.78-.54z"/>
      <g fill="#FFF">
        <path d="M248.03 167.44l-2.43-7.06c-.2-.6.26-1.28 1.02-1.55.77-.26 1.56 0 1.76.6l2.43 7.05c.2.6-.25 1.28-1.02 1.55-.77.26-1.55 0-1.76-.6zM243.96 155.6c-.33-.96 1.1-1.98 2.19-1.54 1.07.43.68 1.88-.6 2.19-.72.16-1.4-.11-1.6-.65z"/>
      </g>
      <path fill="#FCC63D" d="M244.06 180.5l-6.08-17.66c-.21-.6.26-1.31 1.04-1.58s1.59 0 1.8.6l6.08 17.67c.2.6-.26 1.31-1.04 1.58-.79.27-1.59 0-1.8-.6z"/>
      <path fill="#FFF" d="M236.3 157.96c-.13-.38.1-.85.58-1.18.53-.36 1.29-.48 1.79-.27 1 .43.38 1.75-.95 2-.67.11-1.27-.11-1.42-.55z"/>
      <path fill="#F9572B" d="M240.07 193.49l-1.18-3.44c-.21-.62.25-1.34 1.03-1.6.78-.28 1.6 0 1.8.63l1.19 3.43c.21.62-.25 1.34-1.04 1.6-.78.28-1.59 0-1.8-.62z"/>
      <path fill="#FCC63D" d="M237.5 186l-3.2-9.26c-.2-.58.28-1.26 1.06-1.53.79-.27 1.58-.02 1.78.55l3.19 9.26c.2.58-.28 1.26-1.06 1.53s-1.58.02-1.78-.55z"/>
      <g fill="#FFF">
        <path d="M234.43 173.17l-2.77-8.05c-.2-.59.18-1.25.85-1.48.67-.23 1.38.05 1.58.64l2.77 8.05c.2.58-.18 1.25-.85 1.48-.67.23-1.38-.06-1.58-.64zM230.03 160.39c-.33-.96.9-1.9 1.88-1.44.97.46.68 1.87-.45 2.12-.63.14-1.25-.16-1.43-.68zM236.1 200.08l-5.2-15.11c-.2-.59.18-1.25.85-1.48.67-.23 1.38.05 1.58.64l5.2 15.11c.2.59-.18 1.25-.85 1.48-.67.23-1.38-.06-1.58-.64z"/>
      </g>
      <path fill="#F9572B" d="M228.59 181.64l-4.8-13.95c-.2-.59.26-1.28 1.05-1.55.78-.27 1.58-.02 1.78.57l4.8 13.96c.2.58-.26 1.27-1.05 1.54-.78.27-1.58.02-1.78-.57z"/>
      <path fill="#FFF" d="M222.12 162.84c-.3-.85 1.18-1.83 2.25-1.49 1.07.33.66 1.64-.64 2-.74.2-1.45-.03-1.61-.5z"/>
      <path fill="#F9572B" d="M218.73 177.59l-2.5-7.26c-.2-.6.26-1.32 1.04-1.59.79-.27 1.6 0 1.8.61l2.5 7.26c.2.6-.26 1.32-1.04 1.59s-1.59 0-1.8-.61z"/>
      <path fill="#FFF" d="M214.55 165.45c-.13-.4.13-.9.64-1.22.54-.34 1.27-.44 1.75-.22.96.43.38 1.71-.92 1.97-.69.14-1.31-.08-1.47-.53z"/>
      <path fill="#F9572B" d="M261.58 160.74l-1.86-5.4c-.2-.6.26-1.3 1.05-1.57.78-.27 1.58 0 1.79.59l1.86 5.4c.2.6-.26 1.3-1.05 1.57-.78.27-1.58 0-1.79-.6z"/>
      <g fill="#FFF">
        <path d="M266.55 174.59l-3.5-10.14c-.2-.59.18-1.25.85-1.47.66-.23 1.37.05 1.57.64l3.49 10.13c.2.59-.18 1.25-.84 1.48-.67.23-1.37-.06-1.57-.64zM258.3 150.65c-.15-.44.03-.94.44-1.25a1.4 1.4 0 0 1 1.5-.15c.92.52.54 1.92-.6 2.1-.6.09-1.17-.2-1.34-.7z"/>
      </g>
    </g>
    <g>
      <path fill="#A71C1C" d="M467.5 288.05L256 385.65V199.89l216.33-99.84v180.45c0 3.25-1.9 6.2-4.84 7.56z"/>
      <path fill="#720D0D" d="M44.5 287.92l211.5 97.6V199.89L39.67 100.04v180.32c0 3.25 1.9 6.2 4.84 7.56z"/>
      <path fill="#C20E0E" d="M472.32 100.04L256 199.88l38.66 115.98c1.57 4.7 6.88 7 11.38 4.93l201.12-92.83a8.32 8.32 0 0 0 4.4-10.18l-39.24-117.74z"/>
      <path fill="#9B0D0D" d="M39.67 100.04L256 199.88l-38.66 115.98a8.32 8.32 0 0 1-11.38 4.93L4.83 227.96a8.32 8.32 0 0 1-4.4-10.19l39.24-117.73z"/>
    </g>
  </g>
</svg>
